<?xml version="1.0" standalone="no"?>
<!DOCTYPE svg PUBLIC "-//W3C//DTD SVG 1.1//EN" "http://www.w3.org/Graphics/SVG/1.1/DTD/svg11.dtd">
<svg version="1.1" xmlns="http://www.w3.org/2000/svg" viewBox="0 0 148 100" width="148" height="100"><!-- svg-source:excalidraw --><metadata></metadata><defs><style class="style-fonts">
      </style></defs><g stroke-linecap="round" transform="translate(10 10) rotate(0 64 40)"><path d="M5.32 4.63 C5.32 4.63, 5.32 4.63, 5.32 4.63 M5.32 4.63 C5.32 4.63, 5.32 4.63, 5.32 4.63 M4.14 18.18 C9.24 12, 12.32 7.83, 15.3 5.35 M4.14 18.18 C7.06 14.6, 12.31 8.66, 15.3 5.35 M3.62 30.97 C10.76 20.08, 18.7 10.63, 25.93 5.31 M3.62 30.97 C8.73 24.65, 13.27 20.76, 25.93 5.31 M3.75 43.01 C9.56 35.62, 18.07 25.87, 36.56 5.28 M3.75 43.01 C13.63 31.71, 25.92 18.25, 36.56 5.28 M3.89 55.06 C18.36 37.84, 34.42 23.75, 47.19 5.24 M3.89 55.06 C18.54 38.68, 33.2 22.64, 47.19 5.24 M3.37 67.85 C20.6 46.82, 36.84 29.43, 57.82 5.21 M3.37 67.85 C18.38 51.97, 32 35.91, 57.82 5.21 M6.78 76.12 C17.92 61.96, 32.73 46.94, 68.45 5.18 M6.78 76.12 C28.54 50.02, 51.88 25.18, 68.45 5.18 M12.82 81.37 C26.6 62.8, 44.88 46.32, 79.08 5.14 M12.82 81.37 C31.35 58.95, 50.73 36.14, 79.08 5.14 M22.79 82.09 C40.24 63.4, 54.54 43.32, 89.71 5.11 M22.79 82.09 C49.57 53.02, 74.61 22.39, 89.71 5.11 M33.42 82.05 C56.52 57.91, 74.74 32.86, 100.34 5.07 M33.42 82.05 C49.21 64.52, 66.68 44.3, 100.34 5.07 M44.05 82.02 C59.65 61.75, 76.07 44.11, 112.28 3.53 M44.05 82.02 C68.49 52.72, 93.22 24.66, 112.28 3.53 M54.68 81.98 C72.61 60.97, 91.92 37.21, 122.25 4.25 M54.68 81.98 C76.97 58.22, 98.16 32.14, 122.25 4.25 M65.31 81.95 C82.25 60.29, 101.07 42.82, 127.64 10.25 M65.31 81.95 C82.69 62.26, 102.32 41.46, 127.64 10.25 M75.94 81.91 C96.87 58.65, 116.02 39.14, 131.05 18.52 M75.94 81.91 C95.31 58.88, 115.16 35.14, 131.05 18.52 M85.91 82.63 C101.1 64.71, 116.92 51.31, 131.18 30.56 M85.91 82.63 C97.3 70.25, 108.13 55.58, 131.18 30.56 M96.54 82.6 C108.55 69.72, 121.13 56.33, 131.32 42.6 M96.54 82.6 C104.06 73.34, 113.4 62.8, 131.32 42.6 M108.49 81.06 C113.25 72.43, 121.88 66.64, 131.45 54.64 M108.49 81.06 C114.24 74.04, 119.52 67.2, 131.45 54.64 M8.16 77.49 C8.16 77.49, 8.16 77.49, 8.16 77.49 M8.16 77.49 C8.16 77.49, 8.16 77.49, 8.16 77.49 M21.71 78.67 C15.39 73.74, 9.91 66.91, 2.85 62.27 M21.71 78.67 C13.68 71.29, 7.15 66.22, 2.85 62.27 M33.75 78.54 C24.94 73.23, 19.93 64.89, 2.81 51.64 M33.75 78.54 C22.06 68.16, 10.72 57.53, 2.81 51.64 M45.79 78.4 C33.26 67.45, 23.01 59.05, 2.78 41.01 M45.79 78.4 C30.42 64.77, 13.8 51.28, 2.78 41.01 M57.84 78.27 C39.86 62.62, 23.96 46.63, 2.74 30.38 M57.84 78.27 C38.7 61.71, 19.91 44.39, 2.74 30.38 M69.88 78.14 C46.34 55.94, 22.56 38.95, 2.71 19.75 M69.88 78.14 C44.86 56.55, 19.47 35.39, 2.71 19.75 M82.67 78.66 C67.19 64.42, 49.48 51.47, 4.18 10.43 M82.67 78.66 C60.73 58.82, 36.68 40.47, 4.18 10.43 M94.71 78.53 C66.65 54.32, 33.7 26.52, 7.17 2.43 M94.71 78.53 C73.45 60.58, 51.89 42.97, 7.17 2.43 M108.26 79.71 C84.47 59.79, 59.41 39.25, 13.92 -2.3 M108.26 79.71 C88.1 63.73, 67.24 44.47, 13.92 -2.3 M118.04 77.61 C96 59.5, 74.32 40.98, 23.7 -4.4 M118.04 77.61 C84.64 48.76, 51.45 19.78, 23.7 -4.4 M124.04 72.22 C101.14 53.24, 75.96 33.28, 35.74 -4.53 M124.04 72.22 C94.53 46.95, 66.78 22.05, 35.74 -4.53 M130.05 66.84 C101.91 42.61, 69.54 16.73, 48.54 -4.01 M130.05 66.84 C99.54 40.41, 69.48 13.95, 48.54 -4.01 M130.77 56.87 C107.74 37.54, 87.71 20.29, 60.58 -4.14 M130.77 56.87 C107.15 35.8, 84.73 17.99, 60.58 -4.14 M130.73 46.24 C109.61 29.31, 88.39 10.59, 72.62 -4.28 M130.73 46.24 C115.86 32.6, 99.43 18.96, 72.62 -4.28 M130.7 35.61 C114.62 21.49, 98.32 6.17, 84.66 -4.41 M130.7 35.61 C117.31 24.31, 101.55 10.51, 84.66 -4.41 M130.66 24.98 C119.87 17.17, 111.51 11.02, 96.7 -4.54 M130.66 24.98 C121.69 15.96, 110.77 8.45, 96.7 -4.54 M129.12 13.04 C126.63 11.15, 120.89 7.52, 111.01 -2.71 M129.12 13.04 C123.58 8.28, 118 4.31, 111.01 -2.71" stroke="#a5d8ff" stroke-width="1" fill="none"></path><path d="M20 0 C45.21 -1.44, 72.8 2.24, 108 0 M20 0 C55.49 0.37, 90.59 0.21, 108 0 M108 0 C121.41 -0.32, 128.99 5.8, 128 20 M108 0 C119.88 2.06, 127.42 8.25, 128 20 M128 20 C127.32 28.82, 126.47 37.9, 128 60 M128 20 C129.21 34.61, 128.31 50.33, 128 60 M128 60 C129.49 71.93, 122.61 81.76, 108 80 M128 60 C126.65 72.71, 120.72 79.65, 108 80 M108 80 C75.21 78.52, 44.14 81.59, 20 80 M108 80 C89.29 78.46, 71.32 79.47, 20 80 M20 80 C6.78 81.51, 1.93 73.87, 0 60 M20 80 C8.66 78.38, -1.65 73.8, 0 60 M0 60 C-1.12 43.82, 0.83 27.58, 0 20 M0 60 C-0.57 48.91, -1.04 39.29, 0 20 M0 20 C-1.28 7.39, 7.57 0.72, 20 0 M0 20 C-1.39 4.64, 8.6 -0.98, 20 0" stroke="#4dabf7" stroke-width="2" fill="none"></path></g></svg>