<svg version="1.1" xmlns="http://www.w3.org/2000/svg" viewBox="0 0 450 100" width="450" height="100"><!-- svg-source:excalidraw --><metadata></metadata><defs><style class="style-fonts">
      </style></defs><rect x="0" y="0" width="450" height="100" fill="#ffffff"></rect><g stroke-linecap="round" transform="translate(10 10) rotate(0 65 40)"><path d="M91.88 3.9 C101.37 6.06, 111.33 11.08, 117.78 16.61 C124.23 22.14, 129.57 30.21, 130.58 37.07 C131.6 43.92, 128.67 51.66, 123.88 57.74 C119.09 63.81, 110.75 69.79, 101.82 73.5 C92.89 77.21, 80.93 79.48, 70.31 79.98 C59.69 80.48, 47.78 79.26, 38.09 76.51 C28.4 73.76, 18.51 68.91, 12.17 63.46 C5.83 58.02, 1.15 50.57, 0.05 43.87 C-1.05 37.16, 0.79 29.21, 5.57 23.24 C10.35 17.28, 19.7 12.09, 28.75 8.09 C37.79 4.08, 48.17 -0.46, 59.84 -0.77 C71.52 -1.08, 91.62 4.73, 98.8 6.23 C105.98 7.73, 103.68 7.83, 102.91 8.22 M51.46 1.75 C61.28 0.15, 74.28 1.21, 84.6 3.08 C94.92 4.94, 105.91 8.23, 113.37 12.94 C120.84 17.65, 126.97 25.1, 129.38 31.34 C131.8 37.58, 131.08 44.18, 127.87 50.39 C124.67 56.59, 118.08 63.67, 110.14 68.56 C102.19 73.45, 91.08 78.09, 80.2 79.72 C69.32 81.34, 55.34 80.16, 44.84 78.3 C34.34 76.45, 24.57 73.21, 17.2 68.58 C9.84 63.95, 3.27 57.37, 0.65 50.53 C-1.96 43.7, -1.74 33.96, 1.5 27.58 C4.74 21.21, 11.9 16.83, 20.11 12.27 C28.32 7.71, 45.64 1.76, 50.75 0.24 C55.86 -1.29, 50.66 2.17, 50.78 3.12" stroke="none" stroke-width="0" fill="Gray"></path><path d="M35.97 3.11 C44.64 -0.39, 57.95 -1.01, 68.81 -0.31 C79.68 0.4, 92.22 3.38, 101.18 7.34 C110.13 11.31, 117.81 17.69, 122.54 23.48 C127.27 29.28, 130.1 35.73, 129.57 42.12 C129.05 48.52, 125.54 56.35, 119.37 61.85 C113.2 67.35, 102.43 72, 92.57 75.11 C82.71 78.21, 70.88 80.74, 60.21 80.45 C49.55 80.17, 37.54 77.22, 28.58 73.39 C19.62 69.56, 11.3 63.43, 6.46 57.47 C1.63 51.51, -1.12 44.23, -0.44 37.66 C0.23 31.09, 3.04 23.92, 10.52 18.05 C18 12.18, 37.68 5.03, 44.42 2.43 C51.17 -0.17, 50.74 1.95, 51 2.44 M91.12 2.28 C100.86 4, 111.09 9.51, 117.41 15.08 C123.74 20.66, 127.67 29.14, 129.07 35.71 C130.47 42.28, 130.03 48.54, 125.8 54.51 C121.56 60.49, 112.29 67.13, 103.66 71.57 C95.02 76.01, 84.48 80.52, 73.97 81.17 C63.46 81.81, 50.6 78.32, 40.62 75.44 C30.64 72.57, 20.89 68.87, 14.07 63.94 C7.26 59.01, 1.03 52.32, -0.26 45.86 C-1.55 39.4, 1.84 31.36, 6.36 25.17 C10.87 18.97, 18.24 12.94, 26.82 8.67 C35.4 4.41, 47.45 0.72, 57.81 -0.44 C68.18 -1.61, 83.89 0.77, 89.03 1.68 C94.17 2.58, 88.99 3.94, 88.66 5" stroke="#000000" stroke-width="1" fill="none"></path></g><g stroke-linecap="round" transform="translate(160 10) rotate(0 65 40)"><path d="M13.56 15.76 C13.56 15.76, 13.56 15.76, 13.56 15.76 M13.56 15.76 C13.56 15.76, 13.56 15.76, 13.56 15.76 M1.49 35.75 C7.83 30.28, 13.95 23.2, 23.14 10.84 M1.49 35.75 C5.51 30.93, 12.25 24.62, 23.14 10.84 M2.54 40.63 C13.74 29.1, 21.51 18.24, 33.38 5.16 M2.54 40.63 C13.18 28.26, 25.29 14.33, 33.38 5.16 M3.59 45.52 C9.52 37.08, 18.79 27.15, 40.33 3.26 M3.59 45.52 C16.77 31, 30.34 15.84, 40.33 3.26 M4.64 50.41 C18.88 34.28, 33.86 16.74, 45.97 2.86 M4.64 50.41 C19.04 34.03, 31.17 19.94, 45.97 2.86 M5.04 56.05 C19.52 39.71, 37.97 20.11, 51.62 2.47 M5.04 56.05 C20.14 40.64, 34.15 22.55, 51.62 2.47 M8.06 58.68 C24.18 42.57, 37.31 22.07, 56.6 2.83 M8.06 58.68 C26.09 37.96, 43.45 17.59, 56.6 2.83 M11.73 60.55 C23.3 45.92, 36.27 29.17, 62.25 2.44 M11.73 60.55 C23.76 46.4, 35.93 32.58, 62.25 2.44 M14.75 63.17 C36.05 42.03, 53.42 18.16, 67.89 2.04 M14.75 63.17 C33.3 43.14, 50.34 22.11, 67.89 2.04 M17.77 65.8 C30.39 51.59, 41.59 37.79, 73.53 1.65 M17.77 65.8 C33.33 48.56, 47.41 30.89, 73.53 1.65 M21.44 67.67 C41.08 49.13, 56.05 27.65, 77.86 2.76 M21.44 67.67 C33.25 53.81, 44.1 40.31, 77.86 2.76 M24.46 70.29 C48.56 43.04, 70.38 18.39, 82.2 3.88 M24.46 70.29 C38.01 54.37, 49.78 40.13, 82.2 3.88 M27.48 72.91 C39.09 55.72, 53.89 40.91, 86.53 4.99 M27.48 72.91 C45.15 55.34, 60.76 36.21, 86.53 4.99 M31.81 74.03 C55.59 46.12, 76.26 20.18, 90.86 6.11 M31.81 74.03 C48.18 54.01, 64.91 35.52, 90.86 6.11 M36.14 75.14 C52.64 56.17, 71.21 37.24, 95.19 7.22 M36.14 75.14 C57.22 48.7, 80.09 24.7, 95.19 7.22 M40.47 76.26 C55.99 55.79, 73.26 35.84, 99.52 8.34 M40.47 76.26 C60.54 53.36, 78.36 31.08, 99.52 8.34 M44.81 77.37 C63.22 55.59, 81.19 35.41, 103.85 9.45 M44.81 77.37 C59.16 61.2, 73.15 43.88, 103.85 9.45 M48.48 79.24 C65.76 60.49, 80.68 40.92, 107.53 11.32 M48.48 79.24 C69.13 54.14, 90.78 29.8, 107.53 11.32 M52.81 80.36 C74.96 54.62, 98.54 28.61, 110.54 13.94 M52.81 80.36 C73.28 57.57, 95.39 33.24, 110.54 13.94 M57.14 81.47 C76.93 56.15, 100.96 32.7, 113.56 16.57 M57.14 81.47 C74.58 60.44, 93.79 37.47, 113.56 16.57 M63.44 80.32 C79.96 61.78, 99.08 39.62, 117.24 18.44 M63.44 80.32 C81.29 60.11, 98.17 41, 117.24 18.44 M69.08 79.93 C86.71 58.83, 103.88 41.13, 120.26 21.06 M69.08 79.93 C84.22 62.66, 100.27 46.33, 120.26 21.06 M74.73 79.53 C91.95 57.88, 112.14 35.4, 123.28 23.69 M74.73 79.53 C85.71 65.8, 97.96 52.94, 123.28 23.69 M80.37 79.14 C95.67 62.5, 111.01 45.31, 126.95 25.56 M80.37 79.14 C90.08 67.05, 100.5 54.3, 126.95 25.56 M86.67 77.99 C100.28 64.89, 110.47 52.53, 128 30.44 M86.67 77.99 C103.41 59.82, 118.2 40.04, 128 30.44 M91.66 78.35 C100.46 68.73, 112.3 58.61, 129.05 35.33 M91.66 78.35 C101.94 67.92, 111.45 55.97, 129.05 35.33 M100.58 74.18 C107.08 66.56, 115.08 58.37, 130.1 40.22 M100.58 74.18 C110.22 63.52, 120.15 51.24, 130.1 40.22 M108.85 70.77 C112.41 65.88, 118.47 61.07, 130.5 45.86 M108.85 70.77 C114.23 64.47, 118.04 61.11, 130.5 45.86" stroke="Gray" stroke-width="0.5" fill="none"></path><path d="M39.33 2.27 C48.49 -0.75, 61.88 -0.33, 72.7 0.79 C83.53 1.91, 95.51 5.03, 104.3 8.99 C113.1 12.95, 121.18 18.39, 125.47 24.55 C129.77 30.71, 131.58 39.18, 130.08 45.95 C128.58 52.72, 123.1 60.05, 116.47 65.16 C109.84 70.27, 100.37 74.12, 90.3 76.6 C80.24 79.07, 66.83 80.96, 56.08 80.01 C45.33 79.06, 34.31 74.87, 25.78 70.9 C17.25 66.92, 9.07 62.14, 4.91 56.17 C0.75 50.19, -0.64 41.84, 0.83 35.08 C2.3 28.31, 6.39 21.19, 13.73 15.57 C21.08 9.94, 39.02 3.54, 44.92 1.34 C50.82 -0.85, 48.72 1.76, 49.12 2.4 M37.02 3.76 C46.08 0.98, 60.69 0.82, 71.86 1.35 C83.04 1.89, 95.41 3.07, 104.06 6.97 C112.71 10.87, 119.7 18.46, 123.77 24.78 C127.84 31.09, 129.47 38.47, 128.49 44.87 C127.5 51.27, 124.22 57.71, 117.84 63.17 C111.46 68.64, 100 75.1, 90.21 77.65 C80.43 80.2, 69.73 79.13, 59.15 78.46 C48.57 77.79, 35.85 77.2, 26.72 73.63 C17.6 70.06, 8.68 63.37, 4.41 57.05 C0.13 50.73, -0.15 42.34, 1.06 35.71 C2.28 29.08, 5.65 22.66, 11.67 17.27 C17.69 11.89, 32.47 5.42, 37.19 3.39 C41.9 1.36, 39.45 4.5, 39.96 5.09" stroke="#000000" stroke-width="1" fill="none"></path></g><g stroke-linecap="round" transform="translate(310 10) rotate(0 65 40)"><path d="M15.22 14.56 C15.22 14.56, 15.22 14.56, 15.22 14.56 M15.22 14.56 C15.22 14.56, 15.22 14.56, 15.22 14.56 M1.18 36.8 C7.09 25.41, 15.86 17.89, 23.49 11.14 M1.18 36.8 C7.78 28.7, 15.66 18.97, 23.49 11.14 M2.23 41.69 C8.92 34.62, 16.23 27.41, 32.41 6.98 M2.23 41.69 C12.79 28.2, 24.68 16.06, 32.41 6.98 M3.29 46.58 C13.94 30.78, 28.94 18.64, 41.34 2.81 M3.29 46.58 C16.05 32.78, 27.59 17.51, 41.34 2.81 M4.34 51.47 C15.27 37.79, 29.33 25.39, 47.64 1.66 M4.34 51.47 C17.68 36.04, 32.93 18.85, 47.64 1.66 M6.04 55.6 C24.18 35.31, 43.86 12.99, 52.62 2.02 M6.04 55.6 C18.54 42.23, 31.51 27.01, 52.62 2.02 M9.06 58.23 C24.11 39.88, 38.22 22.54, 58.27 1.62 M9.06 58.23 C27.05 38.06, 44.34 16.39, 58.27 1.62 M12.08 60.85 C25.51 47.76, 33.9 34.8, 63.91 1.23 M12.08 60.85 C26.93 44.93, 39.94 29.36, 63.91 1.23 M15.1 63.48 C30.02 48.31, 43.34 29.38, 68.9 1.59 M15.1 63.48 C32.72 43.47, 50.66 22.73, 68.9 1.59 M18.12 66.1 C30.7 51.94, 43.09 37.76, 74.54 1.2 M18.12 66.1 C31.33 50.78, 44.4 37.53, 74.54 1.2 M21.14 68.72 C36.03 51.7, 50.61 34.72, 78.87 2.31 M21.14 68.72 C42.34 44.38, 64.23 20.06, 78.87 2.31 M24.16 71.35 C38.27 52.2, 58.48 34.39, 83.2 3.43 M24.16 71.35 C42.87 50.85, 60.21 28.92, 83.2 3.43 M28.49 72.46 C39.15 59.43, 51.65 46.39, 87.53 4.54 M28.49 72.46 C43.25 57.27, 55.14 42.09, 87.53 4.54 M32.82 73.58 C51.78 49.76, 71.49 27.05, 91.86 5.65 M32.82 73.58 C47.89 54.91, 63.04 38.13, 91.86 5.65 M37.15 74.69 C50.92 55.85, 68.81 36.73, 96.19 6.77 M37.15 74.69 C49.32 59.51, 62.92 45.81, 96.19 6.77 M41.48 75.81 C56.29 62.69, 66.79 47.93, 100.53 7.88 M41.48 75.81 C58.42 57.06, 76.14 37.93, 100.53 7.88 M45.81 76.92 C64.65 54.81, 88.27 31.76, 104.2 9.75 M45.81 76.92 C58.21 63.55, 70.2 49.29, 104.2 9.75 M50.14 78.04 C69.96 57.83, 89.69 33.3, 107.87 11.62 M50.14 78.04 C70.77 53.64, 94.09 28.47, 107.87 11.62 M54.47 79.15 C68.28 66.07, 79.27 50.28, 111.55 13.49 M54.47 79.15 C70.09 60.23, 86.41 41.68, 111.55 13.49 M60.12 78.76 C70.65 63.25, 85.9 51.81, 114.57 16.12 M60.12 78.76 C81.8 55.18, 102.23 30.96, 114.57 16.12 M65.1 79.12 C86.62 53.68, 107.06 31.89, 117.59 18.74 M65.1 79.12 C78.85 62.38, 95.31 45.17, 117.59 18.74 M70.75 78.72 C89.75 55.26, 108.57 33.87, 120.61 21.37 M70.75 78.72 C88.38 56.97, 106.52 37.08, 120.61 21.37 M75.73 79.08 C86.03 65.83, 97.77 54.27, 123.63 23.99 M75.73 79.08 C94.66 57.75, 113.88 35.01, 123.63 23.99 M81.38 78.69 C95.96 64.43, 106.39 50.79, 125.99 27.37 M81.38 78.69 C98.91 59.17, 117.08 38.3, 125.99 27.37 M87.02 78.29 C97.28 67.73, 102.63 58.49, 127.04 32.26 M87.02 78.29 C95.77 67.46, 104.9 58.53, 127.04 32.26 M94.63 75.64 C103.89 64.4, 115.95 51.55, 127.43 37.9 M94.63 75.64 C107.88 61.09, 120.04 47.37, 127.43 37.9 M103.55 71.47 C110.96 62.88, 120.64 52.87, 127.83 43.54 M103.55 71.47 C111.16 63.44, 117.17 56.37, 127.83 43.54 M111.82 68.05 C114.21 63.72, 118.69 61.34, 122.97 55.22 M111.82 68.05 C114.68 65.61, 116.83 61.18, 122.97 55.22 M5.21 54.97 C5.21 54.97, 5.21 54.97, 5.21 54.97 M5.21 54.97 C5.21 54.97, 5.21 54.97, 5.21 54.97 M26.7 68.36 C19.28 62.59, 7.43 54.29, 3.31 48.02 M26.7 68.36 C17.83 61.92, 8.64 54.52, 3.31 48.02 M35.37 70.59 C26.82 63.99, 18.37 56.98, 2.16 41.72 M35.37 70.59 C25.44 62.42, 16.49 55.12, 2.16 41.72 M44.03 72.82 C25.1 57.05, 10.48 42.88, 1.01 35.42 M44.03 72.82 C31.25 61.85, 18.28 50.81, 1.01 35.42 M54.95 77.01 C37.3 61.22, 19.51 47.5, 2.88 31.75 M54.95 77.01 C40.88 64.2, 25.92 52.41, 2.88 31.75 M60.6 76.62 C41.21 59.76, 21.75 43.09, 5.5 28.73 M60.6 76.62 C42.36 60.37, 23.71 44.73, 5.5 28.73 M66.99 76.88 C49.11 60.32, 28.68 44.73, 7.37 25.05 M66.99 76.88 C51.9 62.44, 35.41 48.41, 7.37 25.05 M72.64 76.49 C53.38 60.24, 34.38 47, 10 22.03 M72.64 76.49 C56.47 62.48, 39.37 47.8, 10 22.03 M79.04 76.75 C52.33 53.52, 29.92 32.24, 12.62 19.01 M79.04 76.75 C55.16 55.61, 31.52 34.67, 12.62 19.01 M84.68 76.35 C56.56 52.98, 31.97 27.73, 14.49 15.34 M84.68 76.35 C65.16 58.56, 46.5 41.32, 14.49 15.34 M89.57 75.3 C67.32 57.83, 43.72 38.98, 17.11 12.32 M89.57 75.3 C69.29 56.76, 49.07 39.25, 17.11 12.32 M93.7 73.6 C75.95 55.39, 55.92 38.07, 21.25 10.61 M93.7 73.6 C71.08 55.23, 49.8 35.65, 21.25 10.61 M97.83 71.89 C69.69 47.92, 42.71 22.43, 25.38 8.91 M97.83 71.89 C72.52 50.42, 49.56 28.39, 25.38 8.91 M101.97 70.18 C85.16 54.2, 69.53 41.56, 29.52 7.2 M101.97 70.18 C82.45 52.82, 61.49 35.85, 29.52 7.2 M106.1 68.48 C84.04 48.7, 63.83 30.3, 32.89 4.84 M106.1 68.48 C85.69 50.41, 64.09 31.1, 32.89 4.84 M110.24 66.77 C95.32 50.59, 79.87 37.96, 37.03 3.13 M110.24 66.77 C83.43 42.35, 56.07 17.91, 37.03 3.13 M115.12 65.72 C95.53 47.72, 73.39 29.87, 41.16 1.42 M115.12 65.72 C98.08 51.26, 79.84 36.72, 41.16 1.42 M116.99 62.04 C96.44 43.98, 75.93 26.28, 45.3 -0.28 M116.99 62.04 C100 48.38, 83.67 32.28, 45.3 -0.28 M119.62 59.02 C97.79 39.7, 77.82 20.88, 50.94 -0.68 M119.62 59.02 C98.19 39.66, 75.26 20.17, 50.94 -0.68 M121.49 55.35 C95.13 32.78, 73.22 11.53, 57.34 -0.42 M121.49 55.35 C97.73 33.99, 73.8 15.13, 57.34 -0.42 M124.11 52.33 C105.84 34.59, 87.52 20.07, 62.98 -0.81 M124.11 52.33 C108.3 37.67, 92.51 24.75, 62.98 -0.81 M126.74 49.31 C112.74 37.41, 94.83 22.83, 69.38 -0.55 M126.74 49.31 C110.57 34.44, 93.68 20.45, 69.38 -0.55 M128.61 45.64 C115.17 35.73, 105.54 23.5, 76.53 0.37 M128.61 45.64 C118.67 35.12, 106.44 27.44, 76.53 0.37 M128.21 39.99 C118.56 31.63, 109.48 22.12, 85.19 2.6 M128.21 39.99 C117.32 31.44, 107.46 23.54, 85.19 2.6 M127.06 33.69 C118.82 24.46, 108.05 16.39, 94.61 5.48 M127.06 33.69 C117.8 25.13, 108.67 18.73, 94.61 5.48 M126.67 28.05 C120.42 21.99, 111.31 15, 103.27 7.71 M126.67 28.05 C121.75 23.3, 116.56 20.04, 103.27 7.71" stroke="Gray" stroke-width="0.5" fill="none"></path><path d="M75.87 1.21 C86.2 1.71, 97.56 5.21, 105.86 9.32 C114.16 13.42, 121.93 19.7, 125.68 25.85 C129.44 32.01, 130.28 39.54, 128.39 46.25 C126.51 52.96, 121.18 60.78, 114.36 66.14 C107.54 71.49, 97.68 76.24, 87.46 78.36 C77.24 80.49, 63.63 80.08, 53.04 78.88 C42.44 77.67, 31.92 75.15, 23.89 71.11 C15.86 67.08, 8.75 60.82, 4.86 54.67 C0.97 48.52, -1.12 40.86, 0.57 34.21 C2.27 27.56, 7.9 20.17, 15.03 14.78 C22.16 9.39, 31.65 3.99, 43.37 1.86 C55.08 -0.26, 77.05 1.66, 85.33 2.03 C93.6 2.41, 93.26 3.35, 93.02 4.14 M49.16 -0.1 C58.96 -2.28, 70.95 -0.11, 81.16 1.65 C91.37 3.4, 102.69 5.8, 110.42 10.43 C118.15 15.06, 124.45 22.6, 127.54 29.42 C130.63 36.25, 131.64 45.05, 128.98 51.37 C126.32 57.7, 119.35 63.05, 111.57 67.36 C103.78 71.66, 92.98 75.56, 82.27 77.21 C71.56 78.87, 57.71 78.97, 47.3 77.28 C36.89 75.6, 27.4 71.51, 19.82 67.11 C12.24 62.71, 4.98 56.96, 1.81 50.89 C-1.37 44.81, -2.07 37.06, 0.77 30.66 C3.61 24.27, 11.04 17.29, 18.84 12.5 C26.65 7.72, 42.86 3.72, 47.58 1.97 C52.3 0.23, 46.96 1.53, 47.15 2.03" stroke="#000000" stroke-width="1" fill="none"></path></g></svg>