<svg version="1.1" xmlns="http://www.w3.org/2000/svg" viewBox="0 0 220 121.07656533797504" width="220" height="121.07656533797504"><!-- svg-source:excalidraw --><metadata></metadata><defs><style class="style-fonts">
      </style></defs><rect x="0" y="0" width="220" height="121.07656533797504" fill="#ffffff"></rect><g stroke-linecap="round"><g transform="translate(10 110) rotate(0 100 -50)" fill-rule="evenodd"><path d="M0 0 C0 0, 0 0, 0 0 M0 0 C0 0, 0 0, 0 0 M10.63 -0.03 C37.88 -29, 63.77 -61.2, 80.83 -80.79 M10.63 -0.03 C37.22 -31.71, 65.28 -62.58, 80.83 -80.79 M21.26 -0.07 C44.6 -30.55, 71.74 -56.53, 104.58 -95.92 M21.26 -0.07 C40.64 -23.48, 59.48 -44.32, 104.58 -95.92 M31.89 -0.1 C60.75 -34.96, 92.19 -70.76, 109.96 -89.91 M31.89 -0.1 C54.93 -26.14, 80.04 -54.94, 109.96 -89.91 M42.52 -0.14 C65.88 -27.14, 88.38 -55.91, 116 -84.67 M42.52 -0.14 C62.33 -22.74, 84.43 -47.75, 116 -84.67 M53.15 -0.17 C70.9 -22.17, 90.2 -42.23, 121.38 -78.66 M53.15 -0.17 C78.04 -28.7, 103.75 -58.26, 121.38 -78.66 M63.78 -0.21 C86.01 -27.28, 109.83 -54.39, 126.76 -72.66 M63.78 -0.21 C77.47 -15.94, 90.34 -31.64, 126.76 -72.66 M74.41 -0.24 C88.86 -16.85, 100.22 -28.3, 132.8 -67.41 M74.41 -0.24 C86.56 -15.77, 97.95 -28.95, 132.8 -67.41 M85.04 -0.28 C105.3 -22.79, 123.92 -43.53, 138.18 -61.41 M85.04 -0.28 C96.32 -13.2, 108.61 -26.66, 138.18 -61.41 M95.67 -0.31 C111.19 -21.17, 128.51 -38.29, 144.22 -56.16 M95.67 -0.31 C107.89 -14.4, 120.57 -28.22, 144.22 -56.16 M106.3 -0.34 C117.56 -13.31, 130.69 -30.52, 149.6 -50.16 M106.3 -0.34 C117.9 -14.06, 129.55 -26.7, 149.6 -50.16 M116.27 0.38 C127.3 -11.89, 138.3 -24.72, 155.64 -44.91 M116.27 0.38 C128.87 -14.95, 143.48 -31.09, 155.64 -44.91 M126.91 0.34 C136.52 -9.98, 145.36 -21.72, 161.02 -38.9 M126.91 0.34 C139.4 -13.53, 151.03 -26.72, 161.02 -38.9 M137.54 0.31 C147.09 -11.19, 156.39 -21.8, 167.06 -33.66 M137.54 0.31 C147.11 -9.86, 155.3 -21.57, 167.06 -33.66 M148.17 0.27 C158.53 -10.03, 166.67 -17.43, 172.44 -27.65 M148.17 0.27 C154.47 -7.55, 160.6 -13.07, 172.44 -27.65 M158.8 0.24 C163.59 -5.77, 167.59 -8.03, 177.82 -21.65 M158.8 0.24 C163.1 -4.88, 166.28 -9.37, 177.82 -21.65 M169.43 0.2 C172.32 -3.28, 176.89 -9.62, 183.86 -16.4 M169.43 0.2 C175.07 -6.81, 181.54 -12.93, 183.86 -16.4 M180.06 0.17 C182.91 -3.37, 186.49 -6.12, 189.24 -10.4 M180.06 0.17 C182.11 -2.93, 185.55 -5.86, 189.24 -10.4 M190.69 0.13 C191.1 -1.29, 193.31 -2.07, 195.28 -5.15 M190.69 0.13 C192.03 -1.88, 193.96 -3.48, 195.28 -5.15 M0 0 C0 0, 0 0, 0 0 M0 0 C0 0, 0 0, 0 0 M12.04 -0.13 C10.4 -1.52, 8.15 -3.08, 6 -5.38 M12.04 -0.13 C10.21 -1.45, 9.16 -2.68, 6 -5.38 M24.08 -0.27 C20.97 -4.55, 13.84 -9.79, 11.25 -11.42 M24.08 -0.27 C21.84 -2.2, 18.63 -5.87, 11.25 -11.42 M36.88 0.26 C32.66 -4.82, 27.49 -9.4, 17.25 -16.8 M36.88 0.26 C30.7 -5.42, 24.06 -10.49, 17.25 -16.8 M48.92 0.12 C37.34 -10.51, 27.96 -16.01, 22.5 -22.84 M48.92 0.12 C42.92 -4.79, 38.88 -9.04, 22.5 -22.84 M60.96 -0.01 C53 -4.22, 47.29 -13.95, 28.51 -28.22 M60.96 -0.01 C53.45 -7.43, 46.72 -13.76, 28.51 -28.22 M73 -0.14 C63.91 -5.66, 58.12 -15.61, 33.75 -34.26 M73 -0.14 C61.24 -11.19, 50.69 -21.04, 33.75 -34.26 M85.04 -0.28 C66.41 -15.7, 51.67 -29.89, 39.76 -39.64 M85.04 -0.28 C74.92 -9.1, 64.77 -17.68, 39.76 -39.64 M97.84 0.25 C81.27 -13.95, 61.52 -29.28, 45.01 -45.68 M97.84 0.25 C78.81 -17.26, 59.77 -33.47, 45.01 -45.68 M109.88 0.11 C91.16 -13.86, 74.43 -30.62, 51.01 -51.06 M109.88 0.11 C91.49 -15.56, 74.88 -29.81, 51.01 -51.06 M121.92 -0.02 C103.37 -16.82, 80.4 -32.87, 57.01 -56.44 M121.92 -0.02 C99.58 -19.18, 75.81 -38.29, 57.01 -56.44 M133.96 -0.15 C106.07 -24.26, 79.39 -46.55, 62.26 -62.48 M133.96 -0.15 C113.07 -18.38, 93.24 -35.4, 62.26 -62.48 M146 -0.29 C125.78 -15.97, 110.33 -31.61, 68.26 -67.86 M146 -0.29 C120.34 -23.14, 96.37 -43.54, 68.26 -67.86 M158.8 0.24 C127.4 -29.16, 93.35 -55.08, 73.51 -73.9 M158.8 0.24 C128.92 -25.4, 101.03 -49.97, 73.51 -73.9 M170.84 0.1 C144.63 -20.59, 121.03 -43.79, 79.52 -79.28 M170.84 0.1 C149.51 -19.62, 128.33 -36.87, 79.52 -79.28 M182.88 -0.03 C152.32 -28.48, 120.26 -54.02, 84.76 -85.32 M182.88 -0.03 C152.63 -26.79, 120.77 -55.36, 84.76 -85.32 M194.92 -0.16 C158.53 -31.18, 121.99 -63.47, 90.77 -90.7 M194.92 -0.16 C163.37 -28.3, 128.86 -57.07, 90.77 -90.7 M160.17 -40.97 C137.88 -63.19, 110.56 -82.93, 96.77 -96.08 M160.17 -40.97 C137.73 -61.32, 114.64 -81.22, 96.77 -96.08" stroke="LightGreen" stroke-width="1" fill="none"></path><path d="M0 0 C78.6 -0.04, 157.91 -0.99, 200 0 M0 0 C40.04 1.48, 80.86 1.39, 200 0 M200 0 C172.91 -27.54, 143.92 -53.95, 100 -100 M200 0 C171.23 -26.58, 143.97 -54.87, 100 -100 M100 -100 C74.48 -74.19, 46.54 -47.2, 0 0 M100 -100 C76.51 -74.35, 52.21 -50.3, 0 0 M0 0 C0 0, 0 0, 0 0 M0 0 C0 0, 0 0, 0 0" stroke="DarkGreen" stroke-width="2" fill="none"></path></g></g><mask></mask></svg>