<svg version="1.1" xmlns="http://www.w3.org/2000/svg" viewBox="0 0 450 100" width="450" height="100"><!-- svg-source:excalidraw --><metadata></metadata><defs><style class="style-fonts">
      </style></defs><rect x="0" y="0" width="450" height="100" fill="#ffffff"></rect><g stroke-linecap="round" transform="translate(10 10) rotate(0 65 40)"><path d="M49.49 1.78 C59.24 -0.27, 72.53 -0.15, 82.96 1.68 C93.39 3.51, 104.42 7.94, 112.07 12.78 C119.72 17.62, 126.33 24.26, 128.85 30.73 C131.37 37.21, 130.25 45.36, 127.19 51.63 C124.13 57.89, 118.52 63.94, 110.5 68.33 C102.47 72.73, 89.59 76.33, 79.05 78.01 C68.51 79.69, 57.6 80.31, 47.23 78.41 C36.86 76.52, 24.52 71.35, 16.84 66.62 C9.16 61.89, 3.58 56.53, 1.18 50.03 C-1.22 43.52, -0.88 34, 2.43 27.58 C5.74 21.16, 12.64 15.87, 21.02 11.51 C29.4 7.15, 46.52 3.06, 52.7 1.43 C58.89 -0.2, 57.9 1.07, 58.15 1.74 M48.84 2.58 C58.87 0.75, 72.67 0.8, 83.44 2.48 C94.21 4.17, 105.8 8.14, 113.46 12.71 C121.11 17.28, 127.22 23.28, 129.39 29.89 C131.57 36.5, 129.65 45.9, 126.5 52.36 C123.34 58.83, 118.31 64.44, 110.45 68.67 C102.6 72.91, 89.76 76.3, 79.37 77.76 C68.97 79.22, 58.13 78.92, 48.07 77.43 C38.02 75.93, 26.64 73.45, 19.06 68.77 C11.47 64.09, 5.31 56.12, 2.57 49.33 C-0.16 42.54, -0.33 34.41, 2.64 28.04 C5.62 21.67, 12.82 15.57, 20.44 11.1 C28.07 6.63, 43.69 2.76, 48.4 1.22 C53.1 -0.33, 48.04 1.16, 48.66 1.83" stroke="#000000" stroke-width="1" fill="none"></path></g><g stroke-linecap="round" transform="translate(160 10) rotate(0 65 40)"><path d="M53.59 1.35 C63.42 -0.58, 76.48 -0.38, 86.74 1.61 C96.99 3.6, 107.96 8.28, 115.1 13.29 C122.24 18.3, 127.68 24.86, 129.59 31.66 C131.51 38.46, 130.24 47.75, 126.58 54.11 C122.91 60.46, 115.71 65.57, 107.59 69.8 C99.48 74.03, 88.53 78.28, 77.89 79.47 C67.25 80.66, 54.23 79.17, 43.74 76.95 C33.24 74.72, 22.04 71.09, 14.92 66.13 C7.81 61.17, 2.84 53.87, 1.06 47.18 C-0.72 40.49, 0.63 32.33, 4.24 25.99 C7.85 19.66, 13.19 13.46, 22.73 9.18 C32.27 4.89, 54 1.73, 61.47 0.27 C68.94 -1.18, 67.53 -0.05, 67.54 0.47" stroke="#000000" stroke-width="1.5" fill="none" stroke-dasharray="8 9"></path></g><g stroke-linecap="round" transform="translate(310 10) rotate(0 65 40)"><path d="M51.33 1.27 C61.25 -0.71, 73.76 -0.32, 83.99 1.48 C94.21 3.28, 105.22 7.06, 112.68 12.07 C120.14 17.08, 126.24 24.85, 128.74 31.53 C131.25 38.22, 130.87 45.93, 127.73 52.18 C124.59 58.42, 117.92 64.58, 109.92 69.01 C101.92 73.44, 90.41 77.14, 79.72 78.76 C69.03 80.39, 56.01 80.7, 45.76 78.75 C35.52 76.81, 25.55 72.18, 18.24 67.1 C10.92 62.01, 4.36 54.8, 1.89 48.23 C-0.57 41.67, 0.45 34.01, 3.45 27.69 C6.45 21.37, 11.37 14.96, 19.91 10.32 C28.45 5.68, 48.17 1.41, 54.69 -0.13 C61.22 -1.68, 58.75 0.18, 59.06 1.03" stroke="#000000" stroke-width="1.5" fill="none" stroke-dasharray="1.5 7"></path></g></svg>