<?xml version="1.0" standalone="no"?>
<!DOCTYPE svg PUBLIC "-//W3C//DTD SVG 1.1//EN" "http://www.w3.org/Graphics/SVG/1.1/DTD/svg11.dtd">
<svg version="1.1" xmlns="http://www.w3.org/2000/svg" viewBox="0 0 148 100" width="148" height="100"><!-- svg-source:excalidraw --><metadata></metadata><defs><style class="style-fonts">
      </style></defs><g stroke-linecap="round" transform="translate(10 10) rotate(0 64 40)"><path d="M5.32 4.63 C5.32 4.63, 5.32 4.63, 5.32 4.63 M5.32 4.63 C5.32 4.63, 5.32 4.63, 5.32 4.63 M0.86 21.95 C3.77 16.4, 8.63 11.79, 19.23 0.82 M0.86 21.95 C7.37 13.23, 14.82 6.98, 19.23 0.82 M1 33.99 C5.88 25.99, 11.89 21.22, 29.86 0.79 M1 33.99 C9.84 24.43, 17.69 12.69, 29.86 0.79 M1.13 46.03 C12.41 30.39, 25.68 17.84, 40.49 0.75 M1.13 46.03 C12.87 33.06, 22.46 20.2, 40.49 0.75 M0.61 58.83 C20.74 37.66, 37.49 13.49, 51.12 0.72 M0.61 58.83 C20.41 36.12, 40.42 13.34, 51.12 0.72 M2.05 69.36 C17.7 48.91, 36.58 30.07, 61.75 0.68 M2.05 69.36 C18.36 51.18, 32.59 34.26, 61.75 0.68 M6.78 76.12 C23.36 59.3, 36.64 38.68, 72.38 0.65 M6.78 76.12 C32.27 47.59, 57.07 17.91, 72.38 0.65 M14.78 79.1 C29.22 60.08, 47.84 43.93, 83.01 0.61 M14.78 79.1 C29.64 61.58, 46.65 42.12, 83.01 0.61 M24.1 80.58 C51.72 48, 76.2 16.56, 93.64 0.58 M24.1 80.58 C48.16 53.11, 72.18 25.09, 93.64 0.58 M34.73 80.54 C52.96 57.93, 71.88 38.05, 104.27 0.54 M34.73 80.54 C57.02 53.11, 79.92 27.84, 104.27 0.54 M45.36 80.51 C60.29 62.23, 75.56 46.61, 114.25 1.26 M45.36 80.51 C63.85 57.13, 84.42 33.8, 114.25 1.26 M55.99 80.47 C78.09 56.12, 97.32 31.41, 122.25 4.25 M55.99 80.47 C68.84 65.32, 83.36 47.64, 122.25 4.25 M66.62 80.44 C80.69 65.01, 95.59 45.77, 126.32 11.76 M66.62 80.44 C83.26 60.73, 99.96 41.96, 126.32 11.76 M77.25 80.4 C93.52 65.63, 103.76 50, 128.43 21.54 M77.25 80.4 C97 58.28, 116.9 37.04, 128.43 21.54 M87.88 80.37 C101.85 63.87, 115.5 45.14, 128.56 33.58 M87.88 80.37 C103.56 61.92, 120.9 42.46, 128.56 33.58 M98.51 80.34 C108.22 72.55, 116.13 62.56, 128.69 45.62 M98.51 80.34 C104.49 73.81, 110.71 65.24, 128.69 45.62 M109.8 79.55 C116.91 71.71, 121.87 65.62, 128.17 58.41 M109.8 79.55 C116.1 71.26, 123.83 64.15, 128.17 58.41" stroke="#a5d8ff" stroke-width="1" fill="none"></path><path d="M20 0 C54.02 1.59, 86.42 0.07, 108 0 M20 0 C46.91 -0.93, 75.4 -0.41, 108 0 M108 0 C121.81 0.82, 128.86 4.94, 128 20 M108 0 C120.37 2.14, 127.46 7.95, 128 20 M128 20 C126.14 30.96, 126.64 43.52, 128 60 M128 20 C128.05 35.07, 128.6 52.42, 128 60 M128 60 C126.16 73.29, 121.74 79.19, 108 80 M128 60 C128.85 74.74, 119.91 78.37, 108 80 M108 80 C72.69 80.38, 40.41 78.86, 20 80 M108 80 C84.03 80.09, 61.77 79.97, 20 80 M20 80 C6.37 81.61, 1.79 74.78, 0 60 M20 80 C5.38 79.44, -1.63 73.01, 0 60 M0 60 C-1.11 46.02, 0.11 37.7, 0 20 M0 60 C0.4 44.74, 0.67 28.75, 0 20 M0 20 C0.07 6.35, 7.66 -0.86, 20 0 M0 20 C-1.46 8.72, 6.09 1.59, 20 0" stroke="#4dabf7" stroke-width="2" fill="none"></path></g></svg>