<?xml version="1.0" standalone="no"?>
<!DOCTYPE svg PUBLIC "-//W3C//DTD SVG 1.1//EN" "http://www.w3.org/Graphics/SVG/1.1/DTD/svg11.dtd">
<svg version="1.1" xmlns="http://www.w3.org/2000/svg" viewBox="0 0 148 100" width="148" height="100"><!-- svg-source:excalidraw --><metadata></metadata><defs><style class="style-fonts">
      </style></defs><g stroke-linecap="round" transform="translate(10 10) rotate(0 64 40)"><path d="M20 0 C54.2 3.03, 87.11 3.3, 108 0 C122.54 -1.61, 128.75 4.27, 128 20 C130.31 32.14, 127.37 42.66, 128 60 C125.19 73.58, 122.96 81.73, 108 80 C82.07 80.6, 61.97 79.16, 20 80 C5.67 80.52, 0.57 75.31, 0 60 C-2.4 47.89, 2.56 33.13, 0 20 C-0.37 8.94, 4.86 -0.95, 20 0" stroke="none" stroke-width="0" fill="#a5d8ff"></path><path d="M20 0 C51.63 -1.41, 77.62 -0.53, 108 0 M20 0 C51.35 0.92, 83.77 1.62, 108 0 M108 0 C123.25 -1.03, 126.28 8.32, 128 20 M108 0 C121.03 -0.92, 128.93 6.23, 128 20 M128 20 C126.87 36.14, 126.81 53.15, 128 60 M128 20 C127.62 35.24, 127.42 50.77, 128 60 M128 60 C128.82 71.84, 123.28 78.49, 108 80 M128 60 C125.94 73.82, 120.8 78.1, 108 80 M108 80 C73.56 80.65, 40.8 77.32, 20 80 M108 80 C81.25 80.74, 53.49 80.47, 20 80 M20 80 C7.06 80.93, -0.53 75.27, 0 60 M20 80 C8.71 78.17, -0.92 74.3, 0 60 M0 60 C-1.56 48.7, -1.23 39.08, 0 20 M0 60 C0.32 44.22, -1.11 29.64, 0 20 M0 20 C1.07 5.37, 7.4 -0.81, 20 0 M0 20 C-0.05 6.54, 7.98 0.22, 20 0" stroke="#4dabf7" stroke-width="2" fill="none"></path></g></svg>