<svg version="1.1" xmlns="http://www.w3.org/2000/svg" viewBox="0 0 300 220" width="300" height="220"><!-- svg-source:excalidraw --><metadata></metadata><defs><style class="style-fonts">
      </style></defs><rect x="0" y="0" width="300" height="220" fill="#ffffff"></rect><g stroke-linecap="round" transform="translate(10 130) rotate(0 65 40)"><path d="M67.07 0.47 C77.42 0.01, 89.13 1.52, 98.14 4.95 C107.14 8.38, 115.76 15.01, 121.09 21.05 C126.43 27.09, 130.09 34.73, 130.13 41.18 C130.18 47.63, 126.97 54.2, 121.36 59.76 C115.75 65.32, 106.18 71.16, 96.46 74.55 C86.75 77.93, 73.81 80.07, 63.09 80.07 C52.37 80.07, 41.23 77.86, 32.15 74.55 C23.06 71.24, 13.92 66.17, 8.56 60.2 C3.2 54.24, -0.3 45.75, -0.03 38.78 C0.24 31.81, 4.58 24.19, 10.17 18.4 C15.77 12.62, 23.68 7.1, 33.55 4.08 C43.41 1.06, 63.2 0.84, 69.37 0.27 C75.53 -0.29, 70.8 0.1, 70.55 0.69 M46.27 1.56 C56.23 -1.14, 70.61 -1.64, 81.47 -0.23 C92.32 1.18, 103.88 4.98, 111.41 10.01 C118.93 15.04, 123.95 23.44, 126.62 29.94 C129.3 36.44, 130.2 42.44, 127.47 49 C124.74 55.56, 117.79 64.36, 110.24 69.31 C102.69 74.26, 92.53 77.32, 82.17 78.71 C71.81 80.11, 58.4 79.2, 48.09 77.7 C37.79 76.21, 28.16 74.21, 20.34 69.75 C12.52 65.3, 4.3 57.77, 1.19 50.96 C-1.92 44.15, -1.33 35.56, 1.69 28.89 C4.7 22.21, 11.78 15.51, 19.29 10.92 C26.8 6.33, 41.82 2.7, 46.76 1.33 C51.7 -0.04, 48.57 2.04, 48.92 2.72" stroke="#000000" stroke-width="1" fill="none"></path></g><g stroke-linecap="round" transform="translate(10 10) rotate(0 65 40)"><path d="M20 0 C49.9 1.29, 79.76 0.97, 110 0 M20 0 C47.64 0.26, 75.23 0.19, 110 0 M110 0 C121.51 -1.48, 128.52 8.33, 130 20 M110 0 C121.7 -2.25, 129.54 7.02, 130 20 M130 20 C132.15 33.87, 128.74 42.36, 130 60 M130 20 C130.5 34.13, 129.77 47.62, 130 60 M130 60 C130.63 72.65, 124.2 80.09, 110 80 M130 60 C128.76 71.13, 121.29 78.62, 110 80 M110 80 C74.7 78.27, 37.61 78.5, 20 80 M110 80 C81.2 78.61, 52.73 78.33, 20 80 M20 80 C7.53 80.3, 1.92 71.85, 0 60 M20 80 C5.38 80.33, -2.12 73.56, 0 60 M0 60 C1.15 53.3, -1.23 41.83, 0 20 M0 60 C0.01 45.91, 0.12 31.19, 0 20 M0 20 C1.81 7.24, 5.7 -1.61, 20 0 M0 20 C1.34 7.32, 7.11 1.02, 20 0" stroke="#000000" stroke-width="1" fill="none"></path></g><g stroke-linecap="round" transform="translate(160 130) rotate(0 65 40)"><path d="M82.5 10.25 C95.6 16.93, 104.25 26.39, 113.5 30.75 M82.5 10.25 C94.29 19.56, 106.67 27.08, 113.5 30.75 M113.5 30.75 C130.53 40.83, 130.14 40.96, 113.5 51.25 M113.5 30.75 C130.11 43.2, 132.02 42.26, 113.5 51.25 M113.5 51.25 C103.7 56.16, 95.69 62.39, 82.5 69.75 M113.5 51.25 C100.98 57.28, 89.62 65.94, 82.5 69.75 M82.5 69.75 C64.31 78.84, 65.87 81.47, 49.5 69.75 M82.5 69.75 C67.94 78.95, 67.17 80.14, 49.5 69.75 M49.5 69.75 C38.09 65.63, 28.14 58.16, 16.5 51.25 M49.5 69.75 C37.2 62.78, 24.42 55.73, 16.5 51.25 M16.5 51.25 C1.98 42.57, -1.39 42.77, 16.5 30.75 M16.5 51.25 C-0.33 40.38, 1.34 42.54, 16.5 30.75 M16.5 30.75 C25.53 24.01, 37.29 20.6, 49.5 10.25 M16.5 30.75 C28.75 22.73, 43.28 14.5, 49.5 10.25 M49.5 10.25 C67.62 1.51, 66.88 1.79, 82.5 10.25 M49.5 10.25 C65.29 1.33, 64.09 2.07, 82.5 10.25" stroke="#000000" stroke-width="1" fill="none"></path></g></svg>