<svg version="1.1" xmlns="http://www.w3.org/2000/svg" viewBox="0 0 450 100" width="450" height="100"><!-- svg-source:excalidraw --><metadata></metadata><defs><style class="style-fonts">
      </style></defs><rect x="0" y="0" width="450" height="100" fill="#ffffff"></rect><g stroke-linecap="round" transform="translate(10 10) rotate(0 65 40)"><path d="M130 40 C130 41.74, 129.81 43.5, 129.44 45.22 C129.07 46.95, 128.52 48.67, 127.79 50.35 C127.05 52.03, 126.13 53.7, 125.05 55.31 C123.97 56.92, 122.71 58.49, 121.29 60 C119.88 61.51, 118.29 62.97, 116.57 64.35 C114.85 65.73, 112.96 67.05, 110.96 68.28 C108.96 69.51, 106.81 70.67, 104.57 71.73 C102.33 72.79, 99.95 73.77, 97.5 74.64 C95.05 75.51, 92.49 76.29, 89.87 76.96 C87.26 77.62, 84.55 78.19, 81.82 78.64 C79.09 79.09, 76.29 79.43, 73.48 79.66 C70.68 79.88, 67.83 80, 65 80 C62.17 80, 59.32 79.88, 56.52 79.66 C53.71 79.43, 50.91 79.09, 48.18 78.64 C45.45 78.19, 42.74 77.62, 40.13 76.96 C37.51 76.29, 34.95 75.51, 32.5 74.64 C30.05 73.77, 27.67 72.79, 25.43 71.73 C23.19 70.67, 21.04 69.51, 19.04 68.28 C17.04 67.05, 15.15 65.73, 13.43 64.35 C11.71 62.97, 10.12 61.51, 8.71 60 C7.29 58.49, 6.03 56.92, 4.95 55.31 C3.87 53.7, 2.95 52.03, 2.21 50.35 C1.48 48.67, 0.93 46.95, 0.56 45.22 C0.19 43.5, 0 41.74, 0 40 C0 38.26, 0.19 36.5, 0.56 34.78 C0.93 33.05, 1.48 31.33, 2.21 29.65 C2.95 27.97, 3.87 26.3, 4.95 24.69 C6.03 23.08, 7.29 21.51, 8.71 20 C10.12 18.49, 11.71 17.03, 13.43 15.65 C15.15 14.27, 17.04 12.95, 19.04 11.72 C21.04 10.49, 23.19 9.33, 25.43 8.27 C27.67 7.21, 30.05 6.23, 32.5 5.36 C34.95 4.49, 37.51 3.71, 40.13 3.04 C42.74 2.38, 45.45 1.81, 48.18 1.36 C50.91 0.91, 53.71 0.57, 56.52 0.34 C59.32 0.12, 62.17 0, 65 0 C67.83 0, 70.68 0.12, 73.48 0.34 C76.29 0.57, 79.09 0.91, 81.82 1.36 C84.55 1.81, 87.26 2.38, 89.87 3.04 C92.49 3.71, 95.05 4.49, 97.5 5.36 C99.95 6.23, 102.33 7.21, 104.57 8.27 C106.81 9.33, 108.96 10.49, 110.96 11.72 C112.96 12.95, 114.85 14.27, 116.57 15.65 C118.29 17.03, 119.88 18.49, 121.29 20 C122.71 21.51, 123.97 23.08, 125.05 24.69 C126.13 26.3, 127.05 27.97, 127.79 29.65 C128.52 31.33, 129.07 33.05, 129.44 34.78 C129.81 36.5, 129.91 39.13, 130 40 C130.09 40.87, 130.09 39.13, 130 40" stroke="#000000" stroke-width="1" fill="none"></path></g><g stroke-linecap="round" transform="translate(160 10) rotate(0 65 40)"><path d="M76.01 1.38 C86.25 2.05, 98.03 5.89, 106.19 9.9 C114.34 13.92, 121.17 19.27, 124.95 25.46 C128.72 31.65, 130.29 40.57, 128.81 47.05 C127.33 53.54, 122.75 59.29, 116.06 64.39 C109.37 69.48, 98.83 75.19, 88.69 77.63 C78.55 80.07, 65.92 80.3, 55.21 79.02 C44.49 77.75, 32.82 74.23, 24.4 69.97 C15.98 65.7, 8.48 59.5, 4.69 53.44 C0.9 47.39, 0.03 40.05, 1.66 33.66 C3.28 27.26, 7.85 20.15, 14.43 15.06 C21.01 9.98, 30.31 5.37, 41.14 3.15 C51.98 0.94, 72.64 2.03, 79.43 1.77 C86.22 1.51, 82.19 1.01, 81.89 1.59 M47.7 0.71 C57.66 -1.69, 70.51 0.07, 80.79 1.61 C91.07 3.15, 101.59 5.55, 109.39 9.96 C117.2 14.38, 124.28 21.6, 127.61 28.08 C130.95 34.57, 131.81 42.09, 129.39 48.87 C126.98 55.66, 120.51 63.61, 113.13 68.76 C105.75 73.91, 95.67 77.99, 85.11 79.77 C74.55 81.56, 60.62 81.37, 49.77 79.48 C38.92 77.59, 27.78 72.87, 19.99 68.41 C12.21 63.95, 6.07 58.94, 3.06 52.71 C0.05 46.49, -0.44 38.01, 1.93 31.07 C4.3 24.12, 10.13 16.01, 17.31 11.05 C24.49 6.08, 40.03 2.77, 44.99 1.27 C49.96 -0.23, 46.69 1.59, 47.1 2.07" stroke="#000000" stroke-width="1" fill="none"></path></g><g stroke-linecap="round" transform="translate(310 10) rotate(0 65 40)"><path d="M34.06 4.05 C42.7 0.58, 57.73 0.65, 68.78 1.11 C79.83 1.58, 91.11 3.49, 100.38 6.85 C109.65 10.2, 119.31 15.32, 124.4 21.24 C129.48 27.17, 131.37 35.41, 130.89 42.39 C130.41 49.37, 127.43 57.85, 121.54 63.14 C115.65 68.43, 105.74 71.2, 95.56 74.13 C85.38 77.06, 71.11 80.81, 60.44 80.73 C49.77 80.65, 40.75 77.63, 31.56 73.64 C22.37 69.65, 10.87 62.99, 5.3 56.76 C-0.28 50.53, -2.4 42.55, -1.87 36.28 C-1.34 30.02, -2.65 25.08, 8.47 19.17 C19.59 13.27, 49.87 2.8, 64.87 0.84 C79.87 -1.12, 98.29 6.93, 98.46 7.42 M36.69 7.02 C45.51 3.72, 56.61 1.96, 66.96 1.94 C77.3 1.91, 88.99 3.85, 98.77 6.86 C108.55 9.86, 120.79 14.32, 125.63 19.97 C130.48 25.62, 128.54 33.88, 127.83 40.75 C127.12 47.61, 126.87 54.89, 121.39 61.15 C115.92 67.4, 104.8 75.15, 94.98 78.28 C85.16 81.4, 73.71 80.51, 62.48 79.91 C51.25 79.32, 37.2 78.25, 27.59 74.7 C17.98 71.15, 9.16 64.78, 4.79 58.61 C0.43 52.44, 0.66 44.6, 1.4 37.66 C2.14 30.72, 3.39 22.5, 9.24 16.97 C15.1 11.44, 32.47 6.5, 36.53 4.47 C40.6 2.45, 33.31 4.67, 33.66 4.83" stroke="#000000" stroke-width="1" fill="none"></path></g></svg>