<?xml version="1.0" standalone="no"?>
<!DOCTYPE svg PUBLIC "-//W3C//DTD SVG 1.1//EN" "http://www.w3.org/Graphics/SVG/1.1/DTD/svg11.dtd">
<svg version="1.1" xmlns="http://www.w3.org/2000/svg" viewBox="0 0 153 103" width="153" height="103"><!-- svg-source:excalidraw --><metadata></metadata><defs><style class="style-fonts">
      </style></defs><g stroke-linecap="round" transform="translate(10 10) rotate(0 66.5 41.5)"><path d="M20.75 0 C50.6 -1.61, 86.15 -1.46, 112.25 0 M112.25 0 C127.7 1.93, 134.22 5.1, 133 20.75 M133 20.75 C131.17 37.84, 133.04 50.6, 133 62.25 M133 62.25 C133.26 77.29, 124.41 84.04, 112.25 83 M112.25 83 C75.7 83.11, 43.14 82.97, 20.75 83 M20.75 83 C6.7 81.36, -1.03 75.88, 0 62.25 M0 62.25 C-1.39 47.54, -0.06 30.92, 0 20.75 M0 20.75 C0.98 8.44, 8.68 1.07, 20.75 0" stroke="#4dabf7" stroke-width="2.5" fill="none" stroke-dasharray="1.5 8"></path></g></svg>