<?xml version="1.0" standalone="no"?>
<!DOCTYPE svg PUBLIC "-//W3C//DTD SVG 1.1//EN" "http://www.w3.org/Graphics/SVG/1.1/DTD/svg11.dtd">
<svg version="1.1" xmlns="http://www.w3.org/2000/svg" viewBox="0 0 148 100" width="148" height="100"><!-- svg-source:excalidraw --><metadata></metadata><defs><style class="style-fonts">
      </style></defs><g stroke-linecap="round" transform="translate(10 10) rotate(0 64 40)"><path d="M20 0 C43.63 1.52, 64.39 2.03, 108 0 M20 0 C42.79 -0.83, 67.06 0.87, 108 0 M108 0 C121.24 1.73, 127.99 7.57, 128 20 M108 0 C123 2.27, 126.46 4.53, 128 20 M128 20 C127.63 33.57, 127.71 44.29, 128 60 M128 20 C127.95 32, 127.98 46.62, 128 60 M128 60 C127.25 71.67, 123.31 79.4, 108 80 M128 60 C129.88 75.3, 121.18 80.34, 108 80 M108 80 C82.75 81.65, 57.43 81.46, 20 80 M108 80 C73.8 79.73, 41.79 81.09, 20 80 M20 80 C6.54 81.71, -1.2 73.54, 0 60 M20 80 C4.78 77.89, 2.23 74.48, 0 60 M0 60 C0.73 49.27, -0.22 38.29, 0 20 M0 60 C0.03 47.53, 0.12 35.43, 0 20 M0 20 C-1.47 7.5, 7.83 0.69, 20 0 M0 20 C1.32 8.12, 6.67 1.04, 20 0" stroke="#4dabf7" stroke-width="2" fill="none"></path></g></svg>