<?xml version="1.0" standalone="no"?>
<!DOCTYPE svg PUBLIC "-//W3C//DTD SVG 1.1//EN" "http://www.w3.org/Graphics/SVG/1.1/DTD/svg11.dtd">
<svg version="1.1" xmlns="http://www.w3.org/2000/svg" viewBox="0 0 146 103" width="146" height="103"><!-- svg-source:excalidraw --><metadata></metadata><defs><style class="style-fonts">
      </style></defs><g stroke-linecap="round" transform="translate(10 10) rotate(0 63 41.5)"><path d="M20.75 0 C53.76 1.73, 87.73 -0.75, 105.25 0 M105.25 0 C119.64 -0.66, 125 6.48, 126 20.75 M126 20.75 C123.92 33.57, 127.58 49.09, 126 62.25 M126 62.25 C125.68 77.51, 119.32 83.48, 105.25 83 M105.25 83 C73.11 84.96, 40.86 81.38, 20.75 83 M20.75 83 C6.45 82.11, -0.34 76.55, 0 62.25 M0 62.25 C1.95 54.01, 0.37 41.57, 0 20.75 M0 20.75 C0.06 7.82, 6.58 0.32, 20.75 0" stroke="#4dabf7" stroke-width="2.5" fill="none" stroke-dasharray="8 10"></path></g></svg>