<svg version="1.1" xmlns="http://www.w3.org/2000/svg" viewBox="0 0 450 100" width="450" height="100"><!-- svg-source:excalidraw --><metadata></metadata><defs><style class="style-fonts">
      </style></defs><rect x="0" y="0" width="450" height="100" fill="#ffffff"></rect><g stroke-linecap="round" transform="translate(10 10) rotate(0 65 40)"><path d="M73.73 0.12 C84.01 0.56, 95.51 4.72, 104.16 8.75 C112.81 12.79, 121.5 18.35, 125.64 24.33 C129.78 30.32, 130.46 38.03, 129 44.65 C127.54 51.28, 123.23 58.57, 116.86 64.09 C110.49 69.61, 100.56 75.01, 90.78 77.76 C81 80.5, 69.09 81.39, 58.2 80.53 C47.31 79.68, 34.28 76.81, 25.42 72.64 C16.55 68.47, 9.17 61.63, 5.01 55.5 C0.86 49.36, -0.78 42.39, 0.46 35.84 C1.71 29.29, 5.97 21.48, 12.49 16.19 C19 10.89, 27.8 6.5, 39.55 4.05 C51.29 1.6, 74.15 1.34, 82.93 1.49 C91.71 1.65, 92.49 4.25, 92.24 4.99 M81.74 0.41 C91.74 1.34, 102.32 6.27, 110.22 11.33 C118.12 16.4, 126.03 24.14, 129.12 30.81 C132.21 37.48, 131.89 45.25, 128.74 51.37 C125.58 57.48, 117.74 62.74, 110.2 67.5 C102.66 72.26, 93.91 77.83, 83.5 79.93 C73.09 82.03, 58.31 81.97, 47.74 80.13 C37.17 78.28, 27.57 73.64, 20.08 68.87 C12.58 64.1, 5.61 57.82, 2.77 51.5 C-0.07 45.18, 0.28 37.75, 3.06 30.97 C5.84 24.18, 11.85 15.56, 19.45 10.79 C27.06 6.02, 38.52 4, 48.66 2.35 C58.8 0.7, 74.69 0.94, 80.3 0.88 C85.92 0.82, 82.56 1.31, 82.36 1.99" stroke="#000000" stroke-width="1" fill="none"></path></g><g stroke-linecap="round" transform="translate(160 10) rotate(0 65 40)"><path d="M34.8 5.34 C43.38 1.64, 55.78 -0.64, 66.75 -0.54 C77.72 -0.45, 91.48 2.34, 100.62 5.93 C109.77 9.51, 116.7 15.09, 121.62 20.98 C126.54 26.86, 130.56 34.45, 130.13 41.24 C129.69 48.03, 124.89 56.08, 119.01 61.71 C113.12 67.35, 104.19 72.03, 94.81 75.05 C85.42 78.06, 73.27 80.09, 62.68 79.79 C52.09 79.5, 40.38 76.78, 31.28 73.28 C22.18 69.77, 13.33 64.5, 8.05 58.76 C2.77 53.02, -0.67 45.43, -0.41 38.84 C-0.14 32.25, 1.13 25.43, 9.65 19.21 C18.17 12.98, 41.29 4.49, 50.71 1.49 C60.12 -1.51, 65.9 0.79, 66.12 1.21 M76.74 1.41 C87.03 2.09, 98.77 5.43, 106.92 9.68 C115.07 13.93, 121.99 20.7, 125.63 26.9 C129.28 33.1, 130.69 40.24, 128.77 46.9 C126.85 53.55, 121.27 61.71, 114.12 66.82 C106.98 71.93, 96.01 75.43, 85.88 77.58 C75.74 79.72, 63.61 80.93, 53.33 79.68 C43.05 78.43, 32.26 74.39, 24.19 70.07 C16.13 65.75, 8.99 60.08, 4.94 53.76 C0.89 47.43, -1.89 38.87, -0.11 32.12 C1.66 25.36, 8.26 18.19, 15.59 13.22 C22.93 8.25, 33.54 4.52, 43.88 2.29 C54.23 0.06, 72.07 -0.24, 77.68 -0.14 C83.29 -0.04, 77.74 2.15, 77.53 2.9" stroke="#000000" stroke-width="2" fill="none"></path></g><g stroke-linecap="round" transform="translate(310 10) rotate(0 65 40)"><path d="M58.61 -0.51 C69.08 -1.56, 83.45 0.8, 93.29 3.59 C103.12 6.37, 111.56 10.56, 117.61 16.21 C123.66 21.85, 128.69 30.74, 129.61 37.43 C130.54 44.12, 127.84 50.31, 123.14 56.35 C118.44 62.4, 110.03 69.67, 101.4 73.71 C92.76 77.75, 82.09 80.06, 71.31 80.58 C60.53 81.1, 46.8 79.79, 36.71 76.83 C26.63 73.86, 16.83 68.21, 10.81 62.79 C4.79 57.37, 1.45 50.94, 0.59 44.33 C-0.26 37.71, 1.07 29.41, 5.68 23.09 C10.3 16.76, 18.07 10.09, 28.29 6.37 C38.51 2.66, 59.08 1.76, 66.99 0.82 C74.91 -0.12, 75.68 0.15, 75.75 0.73 M71.42 -0.83 C81.98 -0.72, 94.09 3.9, 102.6 7.73 C111.1 11.55, 117.68 16.42, 122.44 22.13 C127.2 27.84, 131.71 35.04, 131.16 41.98 C130.61 48.92, 125.45 57.86, 119.12 63.76 C112.8 69.65, 103.09 74.54, 93.22 77.36 C83.35 80.18, 70.73 81.47, 59.89 80.68 C49.05 79.89, 37.13 76.48, 28.19 72.65 C19.25 68.81, 10.8 63.57, 6.26 57.66 C1.72 51.75, -0.03 43.66, 0.95 37.18 C1.92 30.7, 6.09 24.34, 12.11 18.76 C18.13 13.17, 27.37 7.02, 37.04 3.67 C46.72 0.32, 64.86 -0.88, 70.18 -1.34 C75.51 -1.79, 69.15 -0.12, 68.99 0.94" stroke="#000000" stroke-width="4" fill="none"></path></g></svg>