<svg version="1.1" xmlns="http://www.w3.org/2000/svg" viewBox="0 0 500 100" width="500" height="100"><!-- svg-source:excalidraw --><metadata></metadata><defs><style class="style-fonts">
      </style></defs><rect x="0" y="0" width="500" height="100" fill="#ffffff"></rect><g stroke-linecap="round" transform="translate(10 10) rotate(0 40 40)"><path d="M49.49 0.78 C56.33 1.97, 63.68 7.22, 68.5 12.41 C73.33 17.6, 76.81 25.04, 78.42 31.92 C80.03 38.81, 80.54 46.91, 78.17 53.72 C75.8 60.53, 70.21 68.45, 64.19 72.78 C58.17 77.1, 49.45 79.45, 42.05 79.65 C34.66 79.86, 26.21 77.6, 19.83 74.01 C13.46 70.42, 6.94 64.45, 3.78 58.12 C0.62 51.78, -0.01 42.93, 0.86 36.03 C1.72 29.13, 4.57 22.47, 8.96 16.73 C13.36 10.99, 19.01 3.63, 27.22 1.6 C35.43 -0.43, 51.71 2.87, 58.23 4.56 C64.75 6.26, 66.65 11.08, 66.33 11.77 M27.06 2.75 C33.39 0.3, 44.11 -0.08, 51.07 1.79 C58.02 3.65, 63.84 8.55, 68.79 13.94 C73.74 19.33, 79.34 27.34, 80.76 34.15 C82.18 40.96, 80.25 48.25, 77.31 54.78 C74.37 61.32, 69.34 69, 63.14 73.37 C56.93 77.74, 47.23 81.11, 40.08 81.01 C32.92 80.92, 26.26 77.03, 20.21 72.8 C14.16 68.58, 7.05 61.9, 3.76 55.66 C0.48 49.43, -0.25 42.47, 0.52 35.38 C1.29 28.29, 3.87 18.88, 8.38 13.11 C12.88 7.34, 24.23 2.43, 27.56 0.77 C30.89 -0.88, 28.02 2.24, 28.35 3.2" stroke="none" stroke-width="0" fill="#E66E05"></path><path d="M46.83 0.78 C53.65 1.53, 62.07 6.51, 67.53 11.39 C72.98 16.26, 77.83 23.02, 79.54 30.04 C81.25 37.06, 80.1 46.52, 77.79 53.51 C75.48 60.5, 71.18 67.56, 65.68 71.98 C60.17 76.4, 51.99 79.32, 44.76 80.02 C37.54 80.73, 28.95 79.44, 22.3 76.22 C15.65 73.01, 8.43 67, 4.87 60.73 C1.32 54.45, 0.6 45.89, 0.97 38.58 C1.33 31.28, 3.25 22.94, 7.08 16.91 C10.91 10.88, 16.76 5.13, 23.94 2.42 C31.12 -0.28, 45.36 0.55, 50.18 0.69 C54.99 0.83, 53.12 2.62, 52.81 3.26 M36.72 -0.84 C43.52 -2.21, 53.89 1.05, 60.26 4.44 C66.62 7.82, 71.44 13.32, 74.9 19.49 C78.36 25.65, 81.71 34, 81.02 41.42 C80.34 48.85, 75.08 58.15, 70.79 64.02 C66.51 69.88, 61.8 74.04, 55.31 76.61 C48.81 79.17, 39.11 80.58, 31.82 79.38 C24.52 78.19, 16.77 74.66, 11.54 69.45 C6.3 64.24, 1.88 55.43, 0.41 48.12 C-1.05 40.8, 0.29 32.25, 2.74 25.53 C5.19 18.82, 9.21 12, 15.14 7.84 C21.06 3.68, 34.74 1.7, 38.28 0.57 C41.83 -0.56, 36.43 0.57, 36.39 1.04" stroke="#E66E05" stroke-width="1" fill="none"></path></g><g stroke-linecap="round" transform="translate(110 10) rotate(0 40 40)"><path d="M48.75 0.61 C55.74 1.85, 64.18 7.68, 69.23 12.87 C74.27 18.06, 77.66 24.77, 79.03 31.74 C80.4 38.71, 80.09 47.95, 77.43 54.7 C74.77 61.45, 69.05 68.04, 63.08 72.23 C57.1 76.42, 48.62 79.44, 41.57 79.86 C34.52 80.27, 26.97 78.34, 20.77 74.73 C14.57 71.12, 7.77 64.65, 4.39 58.2 C1 51.76, -0.06 43.31, 0.48 36.08 C1.02 28.84, 3.18 20.48, 7.61 14.79 C12.04 9.1, 18.9 4.02, 27.07 1.96 C35.24 -0.11, 50.67 1.49, 56.62 2.41 C62.56 3.33, 62.93 6.74, 62.73 7.5 M40.65 -0.26 C47.28 -0.65, 55.31 1.82, 61.29 5.74 C67.27 9.66, 73.34 16.4, 76.53 23.24 C79.72 30.08, 81.51 39.36, 80.44 46.77 C79.37 54.19, 75.17 62.33, 70.12 67.71 C65.07 73.09, 57.12 77.23, 50.13 79.04 C43.14 80.85, 35.14 80.64, 28.17 78.56 C21.2 76.49, 12.94 72.35, 8.32 66.59 C3.71 60.84, 1.1 51.36, 0.46 44.04 C-0.17 36.72, 1.55 28.99, 4.52 22.69 C7.49 16.39, 12.06 10.08, 18.28 6.23 C24.51 2.37, 38.35 0.22, 41.89 -0.45 C45.44 -1.12, 39.63 1.28, 39.55 2.21" stroke="none" stroke-width="0" fill="#CD6204"></path><path d="M57.11 3.46 C63.59 6.03, 69.62 12.6, 73.34 18.83 C77.06 25.06, 79.44 33.53, 79.44 40.84 C79.45 48.15, 77.35 56.76, 73.37 62.68 C69.39 68.61, 62.13 73.71, 55.55 76.41 C48.98 79.12, 41.03 79.96, 33.93 78.92 C26.83 77.89, 18.44 74.79, 12.96 70.19 C7.48 65.58, 3 58.28, 1.05 51.32 C-0.9 44.35, -0.87 35.23, 1.25 28.38 C3.37 21.53, 8.18 14.79, 13.75 10.24 C19.33 5.68, 26.38 1.41, 34.68 1.06 C42.97 0.71, 57.94 6.2, 63.53 8.14 C69.13 10.07, 68.56 12.2, 68.24 12.67 M52.81 1.38 C59.57 3.3, 67.79 9.8, 72.27 15.41 C76.75 21.02, 79.08 27.84, 79.68 35.01 C80.29 42.18, 79.09 51.86, 75.91 58.43 C72.73 65, 66.76 70.99, 60.62 74.42 C54.49 77.85, 46.31 79.37, 39.09 79.03 C31.86 78.68, 23.15 76.24, 17.27 72.35 C11.39 68.46, 6.43 62.44, 3.8 55.68 C1.18 48.93, 0.46 39.12, 1.53 31.84 C2.59 24.56, 5.63 16.89, 10.21 11.99 C14.79 7.1, 21.93 4.09, 28.99 2.49 C36.05 0.88, 48.89 2.25, 52.58 2.38 C56.26 2.5, 51.37 2.89, 51.11 3.24" stroke="#CD6204" stroke-width="1" fill="none"></path></g><g stroke-linecap="round" transform="translate(210 10) rotate(0 40 40)"><path d="M27.51 1.47 C33.88 -1.06, 42.32 -0.12, 49.18 1.81 C56.04 3.74, 63.55 7.86, 68.66 13.05 C73.77 18.24, 78.3 25.82, 79.83 32.97 C81.36 40.11, 80.74 49.23, 77.84 55.91 C74.94 62.6, 68.57 69.07, 62.45 73.09 C56.32 77.1, 48.21 79.76, 41.09 79.98 C33.97 80.2, 25.91 78, 19.74 74.41 C13.56 70.83, 7.43 64.84, 4.04 58.47 C0.65 52.09, -1.37 43.4, -0.59 36.18 C0.19 28.95, 3.56 20.94, 8.71 15.1 C13.86 9.26, 25.86 3.4, 30.29 1.12 C34.72 -1.17, 34.94 0.87, 35.31 1.39 M35.75 -0.13 C42.06 -1.7, 49.24 0.79, 55.8 3.81 C62.35 6.83, 71.2 11.93, 75.06 17.99 C78.93 24.05, 79.18 32.95, 78.99 40.15 C78.8 47.35, 77.66 55.08, 73.92 61.19 C70.17 67.3, 63.1 73.74, 56.52 76.79 C49.95 79.85, 41.47 80.7, 34.47 79.52 C27.46 78.34, 20.15 74.36, 14.48 69.71 C8.82 65.06, 2.51 58.75, 0.46 51.63 C-1.58 44.51, 0.02 33.95, 2.21 27 C4.4 20.05, 8.07 14.25, 13.61 9.92 C19.14 5.6, 32.06 2.74, 35.43 1.07 C38.8 -0.6, 34 -0.49, 33.83 -0.09" stroke="none" stroke-width="0" fill="#B45604"></path><path d="M29.49 1.64 C35.98 -0.57, 44.53 0.6, 51.45 2.74 C58.37 4.88, 66.41 9.27, 71.01 14.47 C75.61 19.68, 78.07 26.69, 79.06 33.96 C80.04 41.24, 79.83 51.45, 76.92 58.1 C74.01 64.75, 67.97 70.25, 61.58 73.85 C55.19 77.45, 45.71 79.75, 38.58 79.71 C31.45 79.68, 24.64 77.45, 18.81 73.64 C12.98 69.83, 6.6 63.56, 3.6 56.86 C0.59 50.16, -0.38 40.62, 0.78 33.42 C1.95 26.22, 5.2 19, 10.59 13.66 C15.98 8.32, 28.95 3.63, 33.12 1.39 C37.3 -0.86, 35.54 -0.4, 35.62 0.22 M29.24 0.82 C35.59 -1.06, 45.53 0.69, 52.61 2.97 C59.69 5.25, 67.39 9.16, 71.72 14.5 C76.04 19.83, 77.97 27.69, 78.56 34.99 C79.14 42.3, 78.04 51.63, 75.21 58.32 C72.39 65.01, 67.74 71.51, 61.6 75.12 C55.45 78.73, 45.92 80.25, 38.34 80 C30.76 79.75, 22.21 77.59, 16.1 73.6 C9.99 69.61, 4.24 62.87, 1.67 56.06 C-0.91 49.26, -0.81 40.21, 0.64 32.77 C2.09 25.34, 5.38 16.86, 10.34 11.46 C15.3 6.07, 27.16 1.94, 30.39 0.41 C33.63 -1.12, 29.64 1.71, 29.74 2.26" stroke="#B45604" stroke-width="1" fill="none"></path></g><g stroke-linecap="round" transform="translate(310 10) rotate(0 40 40)"><path d="M59.45 5.14 C65.59 8.02, 71.74 14.5, 75.17 20.8 C78.6 27.11, 80.41 35.75, 80.01 42.95 C79.62 50.16, 77.13 58.29, 72.82 64.03 C68.51 69.78, 61.16 75.04, 54.15 77.43 C47.14 79.81, 37.95 79.93, 30.77 78.35 C23.59 76.77, 16.19 72.97, 11.06 67.95 C5.94 62.93, 1.46 55.28, 0.04 48.24 C-1.38 41.21, -0.03 32.41, 2.55 25.75 C5.12 19.09, 9.71 12.67, 15.48 8.28 C21.25 3.88, 29.53 -0.24, 37.15 -0.61 C44.77 -0.97, 57.12 4.76, 61.21 6.09 C65.3 7.41, 62.05 6.76, 61.71 7.33 M36.37 -0.08 C43.51 -1.44, 52.17 2.23, 58.27 5.3 C64.37 8.37, 69.13 12.59, 72.99 18.36 C76.84 24.13, 81.45 32.61, 81.4 39.93 C81.35 47.26, 76.9 56.25, 72.67 62.31 C68.44 68.37, 62.45 73.64, 56.02 76.28 C49.59 78.93, 41.03 79.19, 34.11 78.19 C27.19 77.18, 19.77 74.81, 14.5 70.23 C9.22 65.65, 4.36 57.93, 2.46 50.69 C0.56 43.45, 0.97 33.79, 3.1 26.78 C5.23 19.76, 9.83 13.1, 15.25 8.6 C20.67 4.1, 32.15 1.1, 35.62 -0.23 C39.1 -1.55, 36.01 -0.3, 36.08 0.63" stroke="none" stroke-width="0" fill="#9B4A03"></path><path d="M28.47 1.92 C34.96 -0.81, 43.9 -0.26, 50.76 1.51 C57.61 3.28, 64.98 7.21, 69.6 12.53 C74.23 17.86, 77.16 26.09, 78.51 33.45 C79.86 40.81, 80.4 50.02, 77.69 56.67 C74.99 63.32, 68.34 69.39, 62.28 73.35 C56.22 77.3, 48.44 80.12, 41.33 80.39 C34.22 80.66, 25.73 78.71, 19.63 74.96 C13.54 71.21, 8 64.41, 4.76 57.91 C1.51 51.41, -0.52 43.15, 0.16 35.96 C0.85 28.76, 3.92 20.58, 8.88 14.73 C13.83 8.88, 26.14 3.09, 29.91 0.86 C33.67 -1.37, 31.36 0.76, 31.49 1.34 M27.45 2.64 C33.31 0.05, 40.95 0.73, 48.03 2.5 C55.11 4.27, 64.72 8.21, 69.93 13.28 C75.14 18.34, 78.1 25.75, 79.28 32.87 C80.47 39.99, 79.74 49.46, 77.04 55.98 C74.34 62.49, 68.73 67.79, 63.09 71.97 C57.46 76.15, 50.44 80.72, 43.2 81.04 C35.97 81.36, 25.99 77.67, 19.71 73.87 C13.43 70.07, 8.96 64.49, 5.51 58.23 C2.05 51.96, -1.36 43.68, -1.03 36.3 C-0.7 28.92, 2.79 19.45, 7.5 13.96 C12.22 8.47, 24.2 5.1, 27.26 3.36 C30.31 1.62, 25.73 3.01, 25.81 3.53" stroke="#9B4A03" stroke-width="1" fill="none"></path></g><g stroke-linecap="round" transform="translate(410 10) rotate(0 40 40)"><path d="M23.15 3.7 C29.2 0.44, 39.29 0.4, 46.59 1.32 C53.89 2.23, 61.64 4.41, 66.95 9.18 C72.26 13.94, 76.39 22.72, 78.43 29.9 C80.47 37.07, 81.11 45.52, 79.2 52.22 C77.29 58.91, 72.45 65.6, 66.96 70.07 C61.46 74.54, 53.47 78.15, 46.23 79.03 C38.99 79.9, 30.13 78.33, 23.52 75.33 C16.9 72.32, 10.4 66.78, 6.54 60.99 C2.68 55.21, 0.27 47.78, 0.33 40.63 C0.39 33.48, 1.86 24.71, 6.9 18.09 C11.93 11.47, 25.19 3.7, 30.54 0.9 C35.9 -1.89, 38.92 0.52, 39.02 1.33 M37.93 0.56 C44.77 0.04, 54.13 3.06, 60.65 6.51 C67.17 9.97, 74.11 15.08, 77.05 21.29 C79.99 27.5, 79.39 36.28, 78.27 43.78 C77.15 51.27, 74.42 60.69, 70.32 66.27 C66.22 71.85, 60.38 75.39, 53.69 77.27 C47 79.16, 37.42 79.28, 30.2 77.58 C22.97 75.88, 15.24 72.21, 10.34 67.07 C5.43 61.94, 2.05 53.93, 0.75 46.8 C-0.55 39.66, -0.34 30.83, 2.51 24.29 C5.37 17.75, 11.83 11.55, 17.88 7.56 C23.92 3.58, 35.04 1.56, 38.76 0.37 C42.48 -0.82, 40.05 0.03, 40.18 0.45" stroke="none" stroke-width="0" fill="#823E03"></path><path d="M40.42 -0.5 C47.26 -0.87, 55.57 2.97, 61.65 6.95 C67.72 10.94, 73.82 16.77, 76.86 23.39 C79.91 30.02, 80.96 39.39, 79.92 46.69 C78.89 53.99, 75.4 61.78, 70.68 67.19 C65.95 72.6, 58.67 77.19, 51.59 79.15 C44.51 81.11, 35.21 81.22, 28.18 78.93 C21.15 76.63, 13.97 70.86, 9.4 65.37 C4.83 59.88, 1.87 53.07, 0.76 45.98 C-0.36 38.89, -0.35 29.38, 2.71 22.81 C5.76 16.24, 12.35 10.43, 19.08 6.58 C25.82 2.72, 38.56 0.63, 43.13 -0.3 C47.69 -1.24, 46.46 0.35, 46.46 0.96 M43.19 0.16 C50.27 0.74, 60.7 5.54, 66.24 10.04 C71.77 14.55, 74.35 20.59, 76.38 27.2 C78.42 33.82, 80.04 42.91, 78.44 49.72 C76.85 56.53, 72.09 63.03, 66.81 68.07 C61.53 73.1, 53.55 78.58, 46.75 79.91 C39.95 81.25, 32.63 78.88, 26.01 76.09 C19.4 73.29, 11.15 68.96, 7.06 63.13 C2.97 57.29, 1.91 48.17, 1.5 41.07 C1.08 33.98, 0.96 26.63, 4.56 20.58 C8.16 14.53, 16.63 8.27, 23.1 4.76 C29.58 1.25, 39.99 0.26, 43.39 -0.48 C46.78 -1.21, 43.66 -0.54, 43.48 0.34" stroke="#823E03" stroke-width="1" fill="none"></path></g></svg>