<svg version="1.1" xmlns="http://www.w3.org/2000/svg" viewBox="0 0 900 200" width="900" height="200"><!-- svg-source:excalidraw --><metadata></metadata><defs><style class="style-fonts">
      </style></defs><rect x="0" y="0" width="900" height="200" fill="#ffffff"></rect><g stroke-linecap="round" transform="translate(10 10) rotate(0 40 40)"><path d="M34.8 0.36 C41.41 -1.11, 50.03 1.03, 56.44 4.16 C62.86 7.29, 69.5 13.01, 73.31 19.16 C77.11 25.31, 79.13 34.02, 79.28 41.04 C79.43 48.06, 77.91 55.49, 74.21 61.26 C70.51 67.04, 63.8 72.7, 57.09 75.7 C50.38 78.7, 41.36 80.24, 33.95 79.24 C26.55 78.24, 18.12 74.48, 12.69 69.69 C7.26 64.9, 3.03 57.42, 1.37 50.52 C-0.29 43.63, 0.7 35.19, 2.74 28.34 C4.78 21.48, 7.57 14.2, 13.59 9.36 C19.62 4.53, 34.05 0.8, 38.89 -0.66 C43.74 -2.11, 42.69 -0.26, 42.65 0.63 M54.02 4.27 C60.78 6.6, 69.58 11.94, 73.69 17.92 C77.81 23.91, 78.54 33.1, 78.7 40.19 C78.86 47.27, 78.28 54.43, 74.64 60.45 C71 66.47, 63.54 73.29, 56.87 76.31 C50.19 79.33, 41.59 79.35, 34.59 78.57 C27.58 77.8, 20.45 75.78, 14.83 71.67 C9.22 67.55, 3.39 60.94, 0.9 53.88 C-1.59 46.82, -2.14 36.65, -0.1 29.32 C1.94 21.99, 7.5 14.47, 13.12 9.9 C18.73 5.32, 26.79 3.23, 33.6 1.89 C40.41 0.55, 50.53 1.5, 53.99 1.84 C57.46 2.18, 54.52 3.16, 54.39 3.93" stroke="none" stroke-width="0" fill="#47B4EB"></path><path d="M21.76 4.64 C27.75 0.84, 36.84 -1.12, 44.18 -0.4 C51.53 0.32, 60.04 4.26, 65.83 8.98 C71.61 13.7, 76.75 21.04, 78.88 27.94 C81 34.85, 80.54 43.51, 78.57 50.42 C76.6 57.34, 72.15 64.54, 67.07 69.42 C62 74.3, 55.23 78.57, 48.14 79.71 C41.04 80.85, 31.45 78.93, 24.5 76.24 C17.56 73.56, 10.52 69.28, 6.45 63.61 C2.38 57.94, 0.14 49.6, 0.08 42.24 C0.03 34.87, 0.83 26.45, 6.14 19.43 C11.44 12.4, 25.87 3.11, 31.92 0.1 C37.96 -2.91, 42.3 0.59, 42.41 1.35 M35.01 1.22 C41.29 -0.24, 48.37 1.48, 54.84 4.45 C61.31 7.42, 69.89 13.29, 73.83 19.04 C77.78 24.79, 78.4 31.92, 78.5 38.94 C78.6 45.95, 77.91 54.84, 74.43 61.15 C70.95 67.46, 64.11 73.64, 57.65 76.81 C51.18 79.98, 42.85 81.14, 35.63 80.16 C28.4 79.19, 19.83 75.55, 14.29 70.96 C8.74 66.37, 4.58 59.58, 2.38 52.62 C0.18 45.66, -0.59 36.25, 1.08 29.21 C2.75 22.17, 6.94 15.09, 12.38 10.37 C17.82 5.64, 30.01 2.52, 33.7 0.87 C37.4 -0.77, 34.44 0, 34.54 0.5" stroke="#47B4EB" stroke-width="1" fill="none"></path></g><g stroke-linecap="round" transform="translate(10 110) rotate(0 40 40)"><path d="M23.26 4.14 C29.34 0.62, 38.02 -1.37, 44.94 -0.59 C51.87 0.19, 59.38 4.11, 64.8 8.83 C70.23 13.56, 75.35 20.85, 77.49 27.75 C79.64 34.64, 79.39 43.18, 77.69 50.22 C75.99 57.27, 72.34 65.08, 67.29 70.03 C62.23 74.99, 54.42 78.83, 47.38 79.96 C40.33 81.09, 31.73 79.9, 25.02 76.82 C18.31 73.74, 11.27 67.33, 7.11 61.48 C2.95 55.62, 0.25 48.65, 0.08 41.68 C-0.1 34.7, 1.86 25.98, 6.07 19.62 C10.28 13.26, 21.44 6.25, 25.34 3.52 C29.24 0.78, 28.99 2.58, 29.45 3.22 M26.71 1.33 C32.7 -1.59, 40.09 -1.67, 47.21 0.32 C54.32 2.31, 63.92 8.02, 69.4 13.28 C74.87 18.55, 78.71 25, 80.07 31.9 C81.42 38.79, 79.99 48.18, 77.52 54.66 C75.06 61.14, 71.29 66.5, 65.29 70.79 C59.29 75.09, 49.03 79.67, 41.51 80.42 C33.99 81.17, 26.49 78.61, 20.17 75.28 C13.86 71.94, 7 67.02, 3.6 60.41 C0.21 53.79, -0.84 43.21, -0.21 35.57 C0.43 27.93, 3.06 20.18, 7.43 14.56 C11.8 8.94, 22.74 3.49, 26 1.84 C29.26 0.18, 26.74 4.01, 26.99 4.62" stroke="none" stroke-width="0" fill="#47B4EB"></path><path d="M41.15 0.44 C47.91 0.32, 57.23 3.46, 63.07 7.67 C68.9 11.88, 73.31 19.13, 76.17 25.71 C79.03 32.3, 81.55 40.3, 80.21 47.18 C78.86 54.07, 73.12 61.58, 68.11 67.03 C63.1 72.48, 57.03 78.2, 50.15 79.88 C43.27 81.56, 33.71 79.58, 26.82 77.11 C19.93 74.64, 13.16 70.58, 8.81 65.05 C4.45 59.52, 1.32 51.17, 0.67 43.93 C0.03 36.69, 1.85 28.17, 4.93 21.62 C8.01 15.06, 11.48 7.84, 19.14 4.58 C26.8 1.32, 44.52 2.07, 50.88 2.08 C57.25 2.09, 57.39 4.16, 57.31 4.62 M52.68 0.58 C59.43 2.41, 67.26 9.84, 71.69 15.35 C76.12 20.86, 78.26 26.63, 79.25 33.64 C80.23 40.66, 80.7 50.74, 77.61 57.45 C74.52 64.16, 67.08 69.9, 60.71 73.9 C54.33 77.89, 46.59 81.51, 39.37 81.41 C32.16 81.31, 23.47 77.49, 17.42 73.31 C11.37 69.14, 6.09 62.75, 3.07 56.34 C0.06 49.92, -1.84 42.23, -0.65 34.85 C0.54 27.47, 5.13 17.42, 10.22 12.04 C15.31 6.66, 23.04 4.5, 29.91 2.56 C36.78 0.62, 47.9 0.5, 51.46 0.38 C55.01 0.25, 51.5 1.09, 51.22 1.79" stroke="#47B4EB" stroke-width="1" fill="none"></path></g><g stroke-linecap="round" transform="translate(110 10) rotate(0 40 40)"><path d="M31.28 1.62 C37.69 -0.21, 46.42 0.72, 53.31 3.24 C60.21 5.75, 68.1 11.28, 72.64 16.71 C77.18 22.14, 80.2 28.74, 80.56 35.84 C80.93 42.94, 78.2 52.8, 74.83 59.31 C71.46 65.82, 66.72 71.47, 60.34 74.89 C53.96 78.31, 43.99 80.22, 36.57 79.83 C29.14 79.44, 21.42 76.97, 15.81 72.56 C10.19 68.16, 5.37 60.18, 2.88 53.38 C0.38 46.57, -0.6 38.53, 0.82 31.73 C2.25 24.93, 5.25 17.99, 11.44 12.59 C17.62 7.18, 32.45 1.19, 37.94 -0.68 C43.43 -2.56, 44.25 0.51, 44.38 1.32 M26.19 4.29 C32.38 1.45, 41.49 0.61, 48.14 1.55 C54.79 2.49, 61.14 5.29, 66.09 9.93 C71.04 14.58, 76.07 22.25, 77.85 29.41 C79.63 36.57, 78.9 45.95, 76.76 52.87 C74.63 59.79, 70.36 66.41, 65.05 70.94 C59.74 75.46, 51.85 79.34, 44.91 80 C37.96 80.67, 30.12 78.49, 23.37 74.95 C16.63 71.41, 8.5 64.77, 4.44 58.79 C0.37 52.81, -1.67 46.01, -1.02 39.07 C-0.37 32.13, 4.18 23.03, 8.31 17.15 C12.45 11.28, 21.24 5.84, 23.8 3.81 C26.36 1.77, 23.22 4.48, 23.67 4.93" stroke="none" stroke-width="0" fill="#52B1E0"></path><path d="M36.43 0.92 C43.18 -0.37, 52.26 0.93, 58.67 4.12 C65.08 7.31, 71.2 13.74, 74.89 20.06 C78.58 26.38, 81.14 34.95, 80.8 42.03 C80.46 49.12, 77.2 56.61, 72.84 62.58 C68.47 68.54, 61.41 74.96, 54.61 77.82 C47.8 80.68, 38.88 81.09, 32.01 79.75 C25.14 78.42, 18.54 74.9, 13.38 69.8 C8.22 64.69, 3.07 56.12, 1.05 49.12 C-0.98 42.13, -1.05 34.5, 1.24 27.8 C3.53 21.11, 8.4 13.52, 14.78 8.94 C21.15 4.36, 34.65 1.72, 39.47 0.32 C44.3 -1.08, 43.7 -0.15, 43.72 0.55 M35.68 0.17 C42.39 -1.26, 52.04 1.07, 58.21 4.08 C64.39 7.09, 68.88 12.09, 72.71 18.22 C76.55 24.35, 81.18 33.74, 81.21 40.87 C81.24 48, 77.27 55.26, 72.91 61.01 C68.54 66.76, 61.46 72.47, 55.02 75.37 C48.58 78.28, 41.38 79.38, 34.27 78.41 C27.16 77.44, 17.75 74.23, 12.36 69.57 C6.97 64.9, 3.87 57.09, 1.91 50.4 C-0.05 43.72, -1.44 36.5, 0.59 29.45 C2.62 22.4, 8.29 13.16, 14.07 8.1 C19.86 3.04, 31.69 0.31, 35.28 -0.88 C38.86 -2.07, 35.41 0.09, 35.6 0.98" stroke="#52B1E0" stroke-width="1" fill="none"></path></g><g stroke-linecap="round" transform="translate(110 110) rotate(0 40 40)"><path d="M31.68 0.93 C38.13 -1.07, 47.31 -0.76, 53.99 1.83 C60.68 4.42, 67.42 10.4, 71.82 16.47 C76.21 22.54, 79.74 31.09, 80.35 38.27 C80.97 45.45, 79.12 53.5, 75.51 59.56 C71.91 65.63, 65.23 71.42, 58.74 74.67 C52.24 77.93, 43.83 79.54, 36.52 79.08 C29.21 78.62, 20.44 76.19, 14.88 71.91 C9.31 67.62, 5.3 60.21, 3.14 53.35 C0.99 46.49, 0.48 37.69, 1.94 30.75 C3.41 23.81, 6.41 16.8, 11.92 11.72 C17.42 6.63, 30.44 2.14, 34.96 0.26 C39.49 -1.62, 38.92 -0.23, 39.08 0.46 M55.31 4.76 C62.21 6.57, 70.34 10.76, 74.48 16.77 C78.62 22.77, 80.49 33.58, 80.16 40.78 C79.83 47.98, 76.24 54.07, 72.49 59.96 C68.74 65.85, 64.13 72.94, 57.66 76.09 C51.2 79.24, 40.95 79.64, 33.7 78.86 C26.45 78.08, 19.72 75.75, 14.15 71.42 C8.59 67.09, 2.42 59.87, 0.3 52.88 C-1.82 45.88, -0.86 36.65, 1.43 29.43 C3.72 22.22, 8.42 14.16, 14.04 9.58 C19.67 5, 28.18 2.8, 35.19 1.93 C42.21 1.06, 52.46 3.97, 56.14 4.38 C59.83 4.79, 57.32 3.92, 57.31 4.38" stroke="none" stroke-width="0" fill="#4799EB"></path><path d="M34.71 1.32 C41.52 -0.33, 51.49 0.54, 58.06 3.55 C64.63 6.55, 70.56 13.33, 74.13 19.35 C77.71 25.38, 79.6 32.48, 79.52 39.71 C79.44 46.94, 77.66 56.55, 73.67 62.73 C69.67 68.92, 62.32 73.99, 55.56 76.82 C48.79 79.66, 40.11 81.05, 33.09 79.76 C26.06 78.47, 18.8 73.82, 13.41 69.11 C8.02 64.39, 2.58 58.24, 0.73 51.45 C-1.12 44.65, 0.21 35.36, 2.32 28.34 C4.42 21.33, 7.62 13.99, 13.37 9.35 C19.12 4.71, 32.49 1.85, 36.81 0.5 C41.12 -0.85, 39.18 0.5, 39.26 1.24 M34.96 -0.67 C41.78 -1.97, 49.75 1.61, 56.29 5.01 C62.83 8.42, 70.34 14.03, 74.21 19.76 C78.08 25.5, 79.48 32.5, 79.51 39.44 C79.54 46.38, 78.22 55.01, 74.38 61.41 C70.54 67.81, 63.11 74.59, 56.49 77.85 C49.88 81.11, 41.83 82.17, 34.71 80.97 C27.59 79.77, 19.15 75.51, 13.76 70.63 C8.37 65.75, 4.56 58.94, 2.39 51.69 C0.22 44.45, -1.45 34.38, 0.73 27.15 C2.91 19.92, 9.87 12.74, 15.47 8.32 C21.06 3.89, 31.31 1.64, 34.32 0.61 C37.32 -0.42, 33.3 1.44, 33.48 2.11" stroke="#4799EB" stroke-width="1" fill="none"></path></g><g stroke-linecap="round" transform="translate(210 10) rotate(0 40 40)"><path d="M36.65 0.89 C43.19 -0.33, 51.78 0.94, 58.09 4.16 C64.4 7.39, 71.03 14.05, 74.51 20.26 C77.99 26.47, 79.27 34.24, 78.98 41.41 C78.7 48.58, 76.74 57.37, 72.8 63.27 C68.85 69.17, 62.03 74, 55.29 76.81 C48.56 79.62, 39.6 81.34, 32.41 80.13 C25.22 78.91, 17.28 74.65, 12.17 69.53 C7.07 64.41, 3.33 56.51, 1.77 49.4 C0.22 42.29, 0.53 33.85, 2.85 26.85 C5.17 19.85, 8.24 11.71, 15.7 7.39 C23.17 3.08, 40.61 1.34, 47.64 0.96 C54.67 0.58, 58.16 4.52, 57.89 5.14 M56.67 3.83 C63.12 5.79, 70.58 10.98, 74.66 17.08 C78.75 23.17, 81.47 32.84, 81.19 40.42 C80.91 48, 76.87 56.34, 72.97 62.55 C69.07 68.77, 64.05 74.67, 57.8 77.72 C51.56 80.77, 42.85 81.96, 35.49 80.84 C28.13 79.71, 19.22 76, 13.63 70.98 C8.03 65.95, 4.09 57.51, 1.93 50.67 C-0.23 43.84, -1.34 36.5, 0.65 29.97 C2.65 23.44, 8.33 16.63, 13.92 11.5 C19.5 6.36, 27.33 0.37, 34.17 -0.86 C41.02 -2.09, 51.49 3.13, 54.98 4.13 C58.48 5.12, 55.38 4.41, 55.11 5.11" stroke="none" stroke-width="0" fill="#5CADD6"></path><path d="M25.8 2.63 C32.19 -0.12, 42.36 0.3, 49.68 1.97 C57.01 3.65, 64.99 7.49, 69.76 12.69 C74.54 17.89, 77.07 26.22, 78.32 33.17 C79.57 40.11, 79.56 47.98, 77.24 54.38 C74.93 60.78, 70.15 67.27, 64.41 71.59 C58.66 75.91, 50.12 79.61, 42.77 80.29 C35.41 80.97, 26.56 79.21, 20.28 75.69 C14.01 72.16, 8.38 65.53, 5.1 59.15 C1.82 52.76, -0.07 44.49, 0.63 37.38 C1.33 30.26, 4.42 22.26, 9.31 16.45 C14.2 10.63, 26.17 4.92, 29.98 2.47 C33.79 0.03, 32.13 1.27, 32.15 1.77 M44.52 0.26 C51.22 0.03, 59.77 3.38, 65.1 7.9 C70.44 12.42, 74.47 20.55, 76.54 27.39 C78.61 34.23, 78.85 41.83, 77.53 48.91 C76.22 56, 73.92 65.01, 68.65 69.91 C63.39 74.81, 53 77.05, 45.95 78.31 C38.9 79.57, 32.99 80.16, 26.37 77.47 C19.75 74.79, 10.53 68.21, 6.22 62.21 C1.91 56.21, 0.77 48.35, 0.5 41.48 C0.23 34.61, 0.83 27.4, 4.6 20.99 C8.37 14.58, 16.73 6.32, 23.11 3 C29.5 -0.31, 39.54 1.61, 42.92 1.1 C46.29 0.58, 43.08 -0.76, 43.38 -0.09" stroke="#5CADD6" stroke-width="1" fill="none"></path></g><g stroke-linecap="round" transform="translate(210 110) rotate(0 40 40)"><path d="M29.58 1.23 C35.96 -1.11, 44.94 -1.13, 51.73 1.03 C58.52 3.2, 65.61 8.6, 70.31 14.2 C75.01 19.79, 78.98 27.52, 79.92 34.61 C80.86 41.7, 79.25 50.1, 75.95 56.74 C72.66 63.37, 66.49 70.72, 60.18 74.43 C53.87 78.15, 45.1 79.14, 38.09 79.02 C31.07 78.9, 23.93 77.55, 18.08 73.71 C12.23 69.87, 5.9 62.66, 2.98 55.97 C0.07 49.29, -0.57 40.81, 0.6 33.61 C1.77 26.41, 3.68 18.51, 10 12.78 C16.32 7.06, 32.48 1.05, 38.53 -0.75 C44.58 -2.55, 46.16 1.18, 46.28 1.97 M28.9 0.33 C35.48 -1.99, 44.68 -1.15, 51.77 1.42 C58.87 3.98, 67.06 10.07, 71.48 15.73 C75.9 21.4, 77.32 28.41, 78.29 35.41 C79.26 42.4, 80.01 51.4, 77.29 57.71 C74.56 64.02, 68.34 69.58, 61.96 73.25 C55.58 76.93, 46.41 79.83, 39 79.77 C31.59 79.72, 23.69 76.98, 17.49 72.92 C11.3 68.87, 4.54 61.84, 1.84 55.45 C-0.85 49.06, 0.16 41.51, 1.31 34.58 C2.46 27.65, 3.98 19.47, 8.74 13.89 C13.51 8.31, 26.3 2.91, 29.91 1.09 C33.51 -0.72, 30.45 2.28, 30.37 2.98" stroke="none" stroke-width="0" fill="#477EEB"></path><path d="M56.66 2.49 C62.96 4.69, 68.65 11.83, 72.58 18.08 C76.52 24.32, 79.97 32.89, 80.26 39.96 C80.55 47.04, 78.35 54.49, 74.31 60.53 C70.28 66.57, 62.51 72.88, 56.07 76.2 C49.62 79.52, 42.65 81.3, 35.64 80.44 C28.62 79.57, 19.69 75.89, 13.97 70.99 C8.25 66.1, 3.5 57.88, 1.31 51.08 C-0.88 44.28, -1.3 36.87, 0.83 30.2 C2.97 23.53, 8.79 15.91, 14.12 11.06 C19.46 6.2, 25.41 2.2, 32.86 1.04 C40.3 -0.12, 54.32 3.13, 58.79 4.1 C63.25 5.06, 59.96 6.05, 59.67 6.81 M28.26 0.14 C34.46 -2.16, 43.72 0.45, 50.76 2.97 C57.8 5.49, 65.94 9.85, 70.51 15.28 C75.08 20.71, 77.47 28.62, 78.18 35.56 C78.89 42.5, 77.77 50.64, 74.75 56.93 C71.74 63.22, 65.93 69.26, 60.1 73.31 C54.28 77.37, 46.95 81.19, 39.83 81.26 C32.72 81.33, 23.68 78.05, 17.41 73.71 C11.14 69.37, 4.95 61.95, 2.19 55.22 C-0.56 48.48, -0.63 40.28, 0.89 33.31 C2.41 26.34, 6.33 18.86, 11.29 13.39 C16.24 7.92, 27.61 2.17, 30.62 0.51 C33.64 -1.15, 29.45 2.65, 29.4 3.42" stroke="#477EEB" stroke-width="1" fill="none"></path></g><g stroke-linecap="round" transform="translate(310 10) rotate(0 40 40)"><path d="M25.84 2.65 C32.13 -0.37, 40.66 -0.44, 47.66 1.03 C54.66 2.51, 62.73 6.52, 67.85 11.49 C72.97 16.46, 76.87 23.88, 78.37 30.85 C79.86 37.82, 79.22 46.7, 76.83 53.32 C74.45 59.94, 69.64 66.28, 64.06 70.59 C58.47 74.9, 50.42 78.21, 43.32 79.17 C36.22 80.12, 27.66 79.51, 21.48 76.33 C15.3 73.14, 9.76 66.33, 6.24 60.05 C2.72 53.78, 0.16 45.95, 0.35 38.68 C0.54 31.4, 2.62 22.51, 7.37 16.4 C12.12 10.3, 24.69 4.69, 28.85 2.06 C33.01 -0.57, 32.05 0.22, 32.33 0.65 M27.19 1.69 C33.2 -0.97, 41.06 -0.64, 47.86 0.84 C54.65 2.33, 62.49 5.45, 67.96 10.6 C73.43 15.75, 79.14 24.3, 80.67 31.75 C82.2 39.2, 79.89 48.74, 77.13 55.29 C74.37 61.85, 69.8 66.77, 64.12 71.1 C58.45 75.42, 50.55 80.52, 43.07 81.24 C35.59 81.96, 25.45 79.32, 19.24 75.42 C13.03 71.52, 9.14 64.53, 5.81 57.86 C2.47 51.18, -1.12 42.54, -0.8 35.37 C-0.47 28.21, 3.32 20.47, 7.75 14.86 C12.18 9.25, 22.51 3.89, 25.79 1.71 C29.08 -0.46, 27.01 0.85, 27.45 1.83" stroke="none" stroke-width="0" fill="#66AACC"></path><path d="M58.19 5.01 C64.45 7.69, 71.55 13.62, 75.2 20.03 C78.85 26.44, 80.53 36.14, 80.09 43.47 C79.65 50.8, 76.88 58.27, 72.56 64.03 C68.24 69.78, 60.94 75.43, 54.19 78.02 C47.44 80.62, 39.04 81.07, 32.06 79.59 C25.08 78.11, 17.61 74.47, 12.33 69.14 C7.05 63.8, 2.07 54.71, 0.4 47.6 C-1.28 40.48, -0.31 33.08, 2.28 26.45 C4.88 19.81, 10.19 12.33, 15.97 7.8 C21.75 3.26, 29.45 -0.24, 36.97 -0.77 C44.48 -1.3, 57.14 3.23, 61.06 4.61 C64.98 6, 60.88 6.97, 60.48 7.54 M46.11 1.92 C52.95 2.38, 61.58 4.64, 66.89 8.95 C72.2 13.26, 75.97 20.61, 77.96 27.8 C79.95 34.98, 80.74 44.72, 78.81 52.05 C76.89 59.38, 71.91 67.21, 66.4 71.75 C60.88 76.29, 53 78.51, 45.73 79.27 C38.46 80.03, 29.23 79.45, 22.8 76.32 C16.36 73.19, 10.81 66.71, 7.1 60.48 C3.4 54.25, 0.68 45.92, 0.58 38.95 C0.48 31.98, 2.77 24.62, 6.52 18.68 C10.27 12.73, 16.57 6.31, 23.09 3.26 C29.61 0.21, 41.99 0.64, 45.66 0.38 C49.34 0.11, 45.34 0.86, 45.14 1.67" stroke="#66AACC" stroke-width="1" fill="none"></path></g><g stroke-linecap="round" transform="translate(310 110) rotate(0 40 40)"><path d="M44.74 0.5 C51.54 0.59, 59.22 4.88, 64.79 9.35 C70.35 13.82, 75.85 20.6, 78.13 27.34 C80.41 34.07, 80.39 42.88, 78.47 49.76 C76.56 56.63, 71.95 63.58, 66.65 68.6 C61.34 73.61, 53.69 78.53, 46.65 79.86 C39.61 81.19, 30.9 79.41, 24.41 76.59 C17.93 73.77, 11.81 68.87, 7.73 62.94 C3.65 57.01, 0.22 48.09, -0.07 41.02 C-0.36 33.95, 2.35 26.76, 6.02 20.53 C9.68 14.3, 14.8 6.98, 21.92 3.64 C29.03 0.3, 43.7 0.52, 48.68 0.48 C53.66 0.44, 52.2 2.74, 51.78 3.4 M29.19 1.26 C35.56 -1.53, 42.76 -0.27, 49.72 1.51 C56.68 3.29, 66.21 6.57, 70.95 11.96 C75.68 17.34, 77.05 26.29, 78.13 33.8 C79.21 41.32, 80.04 50.28, 77.4 57.05 C74.77 63.82, 68.7 70.51, 62.33 74.43 C55.97 78.35, 46.57 80.7, 39.21 80.57 C31.86 80.45, 24.12 77.76, 18.22 73.67 C12.32 69.58, 6.83 62.25, 3.82 56.03 C0.82 49.82, -0.56 43.55, 0.18 36.4 C0.92 29.25, 3.78 18.89, 8.24 13.15 C12.71 7.41, 23.75 3.86, 26.97 1.97 C30.18 0.08, 26.89 1.44, 27.53 1.8" stroke="none" stroke-width="0" fill="#4763EB"></path><path d="M35.47 -0.71 C42.38 -1.85, 52.05 1.31, 58.4 4.72 C64.75 8.14, 69.89 13.77, 73.56 19.78 C77.24 25.8, 80.5 33.76, 80.48 40.8 C80.45 47.84, 77.51 56.01, 73.44 62.03 C69.36 68.05, 62.88 74.04, 56.03 76.92 C49.18 79.8, 39.49 80.48, 32.33 79.32 C25.16 78.17, 18.23 74.9, 13.06 69.98 C7.89 65.06, 3.08 56.81, 1.29 49.81 C-0.5 42.8, 0.12 34.77, 2.32 27.95 C4.52 21.13, 8.36 13.37, 14.49 8.87 C20.62 4.36, 34.23 2.18, 39.1 0.92 C43.96 -0.34, 43.44 0.95, 43.68 1.31 M21.62 2.67 C27.33 -0.94, 36.73 -2.01, 44.17 -1.06 C51.61 -0.11, 60.5 3.43, 66.26 8.35 C72.03 13.28, 76.83 21.33, 78.79 28.48 C80.74 35.63, 80.23 44.2, 78.02 51.25 C75.82 58.29, 70.74 66.06, 65.56 70.75 C60.38 75.44, 54.02 78.55, 46.92 79.39 C39.82 80.23, 29.55 78.58, 22.98 75.77 C16.41 72.97, 11.41 68.5, 7.5 62.55 C3.58 56.61, -0.43 47.21, -0.51 40.11 C-0.59 33.02, 3.41 25.9, 7.02 19.98 C10.64 14.07, 18.46 7.19, 21.17 4.62 C23.88 2.04, 22.9 4.15, 23.28 4.53" stroke="#4763EB" stroke-width="1" fill="none"></path></g><g stroke-linecap="round" transform="translate(410 10) rotate(0 40 40)"><path d="M22.93 3.35 C29.08 0.16, 39.53 0.27, 46.74 1.49 C53.95 2.71, 60.95 5.89, 66.19 10.66 C71.42 15.43, 76.09 23.1, 78.15 30.12 C80.21 37.14, 80.76 45.93, 78.53 52.77 C76.31 59.61, 70.51 66.79, 64.8 71.17 C59.09 75.55, 51.37 78.36, 44.28 79.04 C37.2 79.72, 28.61 78.1, 22.29 75.25 C15.96 72.4, 10.17 67.76, 6.33 61.92 C2.49 56.08, -0.68 47.54, -0.75 40.22 C-0.83 32.9, 0.86 24.41, 5.87 18 C10.88 11.6, 24.43 4.75, 29.32 1.8 C34.21 -1.16, 34.97 -0.32, 35.22 0.27 M24.75 4.71 C31.02 1.44, 40.5 0.41, 47.4 1.29 C54.3 2.16, 60.87 5.08, 66.16 9.95 C71.45 14.81, 77.16 23.74, 79.16 30.5 C81.15 37.26, 80.25 43.89, 78.13 50.51 C76 57.12, 72.08 65.57, 66.39 70.22 C60.71 74.86, 51.21 77.22, 44.03 78.37 C36.86 79.51, 29.69 79.76, 23.36 77.09 C17.04 74.41, 9.85 68.41, 6.09 62.3 C2.33 56.19, 0.73 47.75, 0.8 40.42 C0.87 33.09, 2.85 24.52, 6.51 18.3 C10.17 12.09, 19.6 5.46, 22.78 3.12 C25.96 0.77, 25.24 3.62, 25.61 4.21" stroke="none" stroke-width="0" fill="#70A7C2"></path><path d="M48.95 0.36 C55.7 1.41, 64.19 6.89, 69.3 12.35 C74.41 17.81, 78.35 25.96, 79.61 33.11 C80.86 40.26, 79.56 48.72, 76.84 55.25 C74.11 61.77, 69.14 67.98, 63.26 72.26 C57.38 76.55, 48.81 80.61, 41.55 80.96 C34.29 81.31, 25.92 78.09, 19.71 74.37 C13.5 70.66, 7.48 65.11, 4.27 58.67 C1.06 52.22, -0.17 42.89, 0.42 35.71 C1.02 28.54, 3.48 21.3, 7.82 15.61 C12.16 9.93, 19.18 3.73, 26.48 1.6 C33.77 -0.53, 46.97 2.51, 51.59 2.84 C56.22 3.17, 54.24 2.92, 54.24 3.57 M31.04 2.61 C37.55 0.69, 46.61 1.33, 53.1 3.25 C59.59 5.17, 65.51 8.78, 69.97 14.13 C74.42 19.48, 78.75 28.25, 79.82 35.34 C80.89 42.43, 79.6 50.27, 76.41 56.68 C73.22 63.08, 67.15 70.08, 60.68 73.77 C54.21 77.47, 44.99 78.91, 37.6 78.84 C30.21 78.77, 22.22 77.48, 16.34 73.36 C10.46 69.24, 5.08 60.93, 2.32 54.14 C-0.44 47.35, -1.6 39.55, -0.23 32.64 C1.15 25.74, 5.59 17.77, 10.58 12.72 C15.57 7.67, 26.44 3.95, 29.71 2.36 C32.98 0.77, 29.76 2.81, 30.2 3.18" stroke="#70A7C2" stroke-width="1" fill="none"></path></g><g stroke-linecap="round" transform="translate(410 110) rotate(0 40 40)"><path d="M48.04 0.39 C54.95 1.06, 62.77 5.57, 67.75 10.68 C72.72 15.79, 76.16 23.94, 77.9 31.07 C79.63 38.21, 80.4 46.66, 78.16 53.5 C75.92 60.34, 70.1 67.84, 64.45 72.1 C58.81 76.37, 51.21 78.42, 44.28 79.1 C37.35 79.78, 29.17 79.21, 22.86 76.18 C16.56 73.15, 10.35 67.3, 6.47 60.93 C2.6 54.57, -0.44 45.3, -0.37 37.99 C-0.29 30.67, 2.55 23.01, 6.91 17.04 C11.26 11.07, 17.55 4.3, 25.78 2.18 C34.01 0.06, 49.87 3.19, 56.28 4.33 C62.69 5.47, 64.38 8.5, 64.23 9.02 M34.52 1.34 C41.01 -0.09, 48.69 1.24, 55.01 4.24 C61.32 7.24, 68.5 13.28, 72.43 19.34 C76.37 25.4, 78.57 33.54, 78.62 40.62 C78.66 47.69, 76.11 56.11, 72.71 61.81 C69.31 67.51, 64.39 71.79, 58.21 74.8 C52.03 77.82, 42.8 80.45, 35.64 79.92 C28.48 79.39, 20.85 76.11, 15.26 71.61 C9.66 67.11, 4.26 60.24, 2.08 52.94 C-0.09 45.64, 0.07 34.93, 2.21 27.81 C4.34 20.69, 9.44 14.84, 14.89 10.24 C20.33 5.64, 31.73 1.47, 34.86 0.22 C38 -1.03, 33.95 1.87, 33.7 2.73" stroke="none" stroke-width="0" fill="#4747EB"></path><path d="M49.84 1.2 C56.58 2.41, 64.98 6.86, 69.75 12.33 C74.53 17.79, 77.35 26.63, 78.48 33.98 C79.61 41.33, 79.17 50.02, 76.56 56.42 C73.95 62.82, 68.66 68.3, 62.84 72.39 C57.03 76.48, 49 80.56, 41.67 80.97 C34.33 81.38, 24.96 78.57, 18.85 74.86 C12.74 71.15, 8.02 65.17, 5 58.7 C1.98 52.23, 0.14 43.29, 0.73 36.04 C1.32 28.8, 4.02 20.78, 8.55 15.23 C13.09 9.68, 20.84 5.1, 27.94 2.75 C35.04 0.4, 47.08 1.06, 51.14 1.12 C55.2 1.18, 52.44 2.38, 52.3 3.11 M25.36 3.59 C31.16 0.34, 39.44 -1.02, 46.24 -0.05 C53.05 0.91, 60.59 4.22, 66.2 9.38 C71.82 14.55, 78.16 23.56, 79.95 30.96 C81.73 38.35, 79.28 47.24, 76.91 53.76 C74.53 60.28, 71.28 65.74, 65.71 70.06 C60.14 74.39, 50.96 78.69, 43.48 79.7 C35.99 80.72, 27.38 79.18, 20.82 76.14 C14.25 73.09, 7.81 67.61, 4.11 61.44 C0.41 55.26, -1.72 46.4, -1.38 39.07 C-1.05 31.75, 1.93 23.32, 6.13 17.48 C10.32 11.65, 20.63 6.1, 23.77 4.06 C26.92 2.02, 24.43 4.65, 24.99 5.25" stroke="#4747EB" stroke-width="1" fill="none"></path></g><g stroke-linecap="round" transform="translate(510 10) rotate(0 40 40)"><path d="M46.54 -0.17 C53.38 0.64, 62.6 5.82, 68.15 10.96 C73.69 16.09, 78.21 23.61, 79.8 30.63 C81.39 37.64, 80.04 46.24, 77.67 53.06 C75.3 59.88, 71.26 67.14, 65.57 71.55 C59.89 75.97, 50.77 78.76, 43.57 79.55 C36.38 80.33, 28.65 79.46, 22.4 76.24 C16.15 73.02, 9.92 66.46, 6.07 60.23 C2.23 54.01, -0.78 46, -0.66 38.88 C-0.54 31.75, 2.34 23.47, 6.79 17.48 C11.24 11.48, 17.92 5.35, 26.04 2.88 C34.16 0.41, 49.24 1.83, 55.5 2.68 C61.76 3.52, 63.93 7.09, 63.62 7.95 M60.11 3.8 C66.35 6.57, 70.99 13.47, 74.39 20.07 C77.79 26.68, 81.08 36.22, 80.51 43.43 C79.93 50.64, 75.14 57.68, 70.94 63.34 C66.75 69, 61.76 74.7, 55.34 77.4 C48.91 80.11, 39.41 81.29, 32.37 79.55 C25.34 77.81, 18.44 72.33, 13.13 66.97 C7.81 61.61, 2.12 54.29, 0.48 47.38 C-1.16 40.47, 0.55 32.05, 3.3 25.52 C6.05 18.98, 11.39 12.67, 16.98 8.19 C22.57 3.72, 29.82 -0.78, 36.83 -1.35 C43.85 -1.92, 55.41 3.76, 59.07 4.77 C62.73 5.78, 59.15 4.17, 58.77 4.7" stroke="none" stroke-width="0" fill="#7AA3B8"></path><path d="M42.84 -0.35 C49.73 -0.34, 57.95 4.07, 63.61 8.19 C69.27 12.3, 74.08 17.68, 76.82 24.34 C79.56 31, 81.3 41.01, 80.05 48.16 C78.81 55.31, 74.33 61.98, 69.35 67.25 C64.37 72.53, 57.39 77.95, 50.16 79.82 C42.94 81.69, 32.84 81.09, 26.02 78.47 C19.2 75.84, 13.51 69.9, 9.25 64.08 C5 58.26, 1.11 50.7, 0.48 43.55 C-0.16 36.39, 2.2 27.7, 5.44 21.15 C8.68 14.61, 12.94 7.73, 19.91 4.28 C26.89 0.83, 42.11 0.86, 47.29 0.44 C52.47 0.03, 51.23 1.27, 51.01 1.78 M50.59 -0.19 C57.7 1.07, 65.66 7.38, 70.21 13.05 C74.75 18.73, 76.78 26.76, 77.87 33.86 C78.96 40.97, 78.96 49.41, 76.74 55.68 C74.52 61.96, 70.33 67.41, 64.57 71.51 C58.81 75.61, 49.74 80, 42.17 80.29 C34.61 80.57, 25.28 76.66, 19.17 73.22 C13.06 69.77, 8.47 65.82, 5.53 59.61 C2.59 53.4, 1.14 43.33, 1.52 35.93 C1.91 28.53, 3.71 20.63, 7.85 15.21 C11.98 9.79, 19.56 5.72, 26.34 3.42 C33.11 1.13, 44.92 1.71, 48.5 1.43 C52.08 1.15, 47.67 1.06, 47.83 1.76" stroke="#7AA3B8" stroke-width="1" fill="none"></path></g><g stroke-linecap="round" transform="translate(510 110) rotate(0 40 40)"><path d="M45.25 1.24 C52.07 1.54, 59.51 4.98, 65.09 9.56 C70.66 14.15, 76.55 21.85, 78.7 28.75 C80.85 35.66, 80.17 44.28, 78.01 50.98 C75.85 57.68, 70.93 64.24, 65.73 68.95 C60.53 73.66, 53.83 78.01, 46.83 79.24 C39.83 80.47, 30.26 79.09, 23.74 76.34 C17.21 73.59, 11.49 68.67, 7.68 62.72 C3.87 56.77, 1.12 47.8, 0.86 40.64 C0.6 33.49, 2.48 26.03, 6.1 19.77 C9.72 13.52, 15.6 6.37, 22.59 3.12 C29.58 -0.12, 43.58 0.33, 48.07 0.29 C52.56 0.25, 49.96 2.19, 49.54 2.87 M31.04 -0.7 C37.73 -2.89, 48.6 -1.34, 55.46 1.36 C62.32 4.05, 67.92 9.51, 72.22 15.47 C76.52 21.44, 80.71 29.94, 81.24 37.15 C81.78 44.35, 79.05 52.14, 75.42 58.7 C71.78 65.26, 66.02 73.15, 59.46 76.51 C52.9 79.88, 43.24 79.86, 36.07 78.9 C28.9 77.93, 22.17 74.95, 16.42 70.72 C10.67 66.48, 4.05 60.34, 1.56 53.49 C-0.93 46.65, -0.16 36.85, 1.47 29.66 C3.1 22.46, 6.14 15.24, 11.33 10.32 C16.52 5.4, 29.08 1.74, 32.59 0.12 C36.1 -1.49, 32.36 -0.29, 32.39 0.63" stroke="none" stroke-width="0" fill="#6347EB"></path><path d="M26.35 2.7 C32.68 -0.04, 42.47 -0.05, 49.7 1.59 C56.92 3.23, 64.66 7.36, 69.71 12.54 C74.77 17.72, 78.78 25.59, 80.02 32.67 C81.25 39.75, 79.97 48.18, 77.11 55.02 C74.24 61.87, 68.59 69.52, 62.82 73.75 C57.06 77.98, 49.81 80.22, 42.5 80.4 C35.19 80.59, 25.25 78.58, 18.96 74.86 C12.67 71.15, 8.01 64.45, 4.76 58.11 C1.5 51.76, -1.17 43.86, -0.59 36.79 C-0.01 29.71, 2.79 21.59, 8.23 15.65 C13.66 9.7, 27.41 3.48, 32.02 1.11 C36.63 -1.27, 35.6 0.75, 35.88 1.39 M28.75 0.51 C35.29 -1.76, 44.55 0.66, 51.68 3.18 C58.81 5.71, 67.09 10.59, 71.53 15.68 C75.98 20.77, 77.36 26.82, 78.34 33.74 C79.32 40.67, 80.4 50.64, 77.41 57.23 C74.43 63.82, 66.72 69.45, 60.4 73.29 C54.09 77.13, 46.9 80.24, 39.55 80.25 C32.19 80.27, 22.09 77.57, 16.29 73.38 C10.49 69.18, 7.52 61.75, 4.75 55.08 C1.98 48.42, -1.15 40.1, -0.34 33.37 C0.47 26.63, 4.57 20.11, 9.59 14.66 C14.61 9.21, 26.64 2.74, 29.8 0.67 C32.95 -1.39, 28.57 1.43, 28.53 2.28" stroke="#6347EB" stroke-width="1" fill="none"></path></g><g stroke-linecap="round" transform="translate(610 10) rotate(0 40 40)"><path d="M46.99 0.44 C53.91 1.04, 62.66 5.99, 67.83 11.15 C73.01 16.31, 76.53 24.39, 78.06 31.43 C79.58 38.47, 79.28 46.6, 76.99 53.4 C74.7 60.21, 69.73 67.99, 64.31 72.26 C58.9 76.52, 51.54 78.59, 44.5 78.99 C37.46 79.4, 28.48 77.89, 22.08 74.69 C15.67 71.49, 9.68 65.89, 6.05 59.81 C2.42 53.72, 0.23 45.49, 0.29 38.18 C0.34 30.86, 2.14 21.68, 6.38 15.91 C10.61 10.15, 18.7 6.1, 25.69 3.61 C32.67 1.12, 44.21 1.34, 48.28 0.98 C52.35 0.62, 50.04 0.95, 50.08 1.45 M38.1 1.48 C44.66 0.77, 52.2 2.46, 58.12 5.92 C64.05 9.38, 69.83 15.88, 73.65 22.25 C77.47 28.61, 81.3 37.43, 81.05 44.13 C80.8 50.83, 76.77 56.92, 72.16 62.45 C67.56 67.98, 60.33 74.38, 53.42 77.33 C46.51 80.27, 37.74 81.74, 30.71 80.12 C23.68 78.5, 16.04 72.79, 11.24 67.61 C6.43 62.43, 3.44 56.17, 1.88 49.04 C0.33 41.92, -0.7 31.94, 1.89 24.85 C4.48 17.77, 11.34 10.64, 17.42 6.53 C23.5 2.43, 35.21 1.02, 38.36 0.23 C41.52 -0.57, 36.63 1.34, 36.37 1.78" stroke="none" stroke-width="0" fill="#85A0AD"></path><path d="M36.91 0.07 C43.53 -1.09, 51.77 1.19, 58.19 4.71 C64.62 8.22, 71.81 14.91, 75.46 21.16 C79.1 27.41, 80.42 35.28, 80.06 42.19 C79.69 49.1, 77.38 56.66, 73.27 62.63 C69.15 68.59, 62.34 75.24, 55.38 77.99 C48.41 80.73, 38.66 80.77, 31.48 79.08 C24.29 77.39, 17.46 72.69, 12.26 67.83 C7.06 62.97, 1.9 56.86, 0.27 49.92 C-1.35 42.97, -0.07 32.98, 2.52 26.15 C5.12 19.32, 9 13.21, 15.87 8.94 C22.74 4.68, 37.82 1.49, 43.76 0.57 C49.7 -0.35, 51.32 2.87, 51.5 3.43 M29.97 2.23 C36.6 0.23, 46.45 1.18, 53.17 3.36 C59.9 5.55, 65.99 9.56, 70.33 15.33 C74.68 21.1, 78.34 30.74, 79.26 38 C80.19 45.27, 79.31 52.88, 75.89 58.92 C72.46 64.96, 65.02 70.76, 58.72 74.24 C52.42 77.73, 45 79.92, 38.07 79.84 C31.14 79.75, 23.08 77.96, 17.13 73.73 C11.19 69.51, 4.89 61.23, 2.4 54.49 C-0.09 47.75, 0.77 40.38, 2.2 33.29 C3.62 26.2, 6.21 17.57, 10.96 11.95 C15.7 6.33, 27.12 1.26, 30.67 -0.44 C34.23 -2.14, 31.88 0.63, 32.28 1.77" stroke="#85A0AD" stroke-width="1" fill="none"></path></g><g stroke-linecap="round" transform="translate(610 110) rotate(0 40 40)"><path d="M39.08 -0.6 C46.09 -1.45, 54.75 1.11, 60.81 5.07 C66.86 9.02, 72.3 16.55, 75.41 23.13 C78.52 29.71, 80.19 37.64, 79.49 44.54 C78.79 51.44, 75.82 59.01, 71.18 64.52 C66.54 70.04, 58.63 75.26, 51.66 77.65 C44.68 80.03, 36.09 80.52, 29.35 78.81 C22.62 77.11, 16.19 72.84, 11.24 67.42 C6.3 62, 0.97 53.3, -0.3 46.3 C-1.57 39.3, 0.81 32.02, 3.64 25.43 C6.46 18.84, 10.29 10.86, 16.66 6.77 C23.04 2.69, 36.96 1.8, 41.89 0.92 C46.81 0.04, 46.29 0.97, 46.21 1.5 M43.29 -0.51 C49.84 -0.07, 58.83 4.86, 64.83 9.65 C70.84 14.45, 77.19 21.41, 79.34 28.27 C81.49 35.12, 80.04 44.11, 77.75 50.76 C75.45 57.41, 70.81 63.28, 65.55 68.18 C60.3 73.08, 53.1 78.6, 46.23 80.17 C39.36 81.74, 30.74 80.42, 24.31 77.58 C17.89 74.74, 11.63 69.25, 7.68 63.15 C3.73 57.04, 0.84 48.2, 0.62 40.92 C0.41 33.65, 2.86 25.9, 6.38 19.52 C9.91 13.13, 15.33 5.78, 21.8 2.6 C28.27 -0.58, 41.56 0.71, 45.18 0.42 C48.8 0.12, 43.68 -0.01, 43.52 0.85" stroke="none" stroke-width="0" fill="#7E47EB"></path><path d="M41.64 0.29 C48.44 0.12, 56.49 3.1, 62.32 7.3 C68.15 11.5, 73.89 18.65, 76.62 25.49 C79.35 32.33, 80.07 41.28, 78.7 48.34 C77.33 55.39, 73.42 62.62, 68.39 67.85 C63.35 73.08, 55.4 77.99, 48.48 79.71 C41.56 81.44, 33.68 80.79, 26.87 78.19 C20.06 75.6, 12.12 69.88, 7.63 64.13 C3.15 58.38, 0.33 50.73, -0.04 43.71 C-0.42 36.69, 2.02 28.34, 5.36 22.02 C8.7 15.7, 13.07 9.36, 20.01 5.8 C26.96 2.23, 41.81 1.17, 47.02 0.62 C52.23 0.07, 51.49 1.95, 51.28 2.49 M48.13 -0.3 C55.09 0.61, 63.31 6.45, 68.35 11.59 C73.39 16.73, 76.93 23.58, 78.37 30.53 C79.81 37.48, 79.61 46.28, 77 53.3 C74.4 60.32, 68.25 67.99, 62.73 72.65 C57.21 77.31, 50.9 80.83, 43.87 81.27 C36.84 81.72, 27.04 78.88, 20.53 75.31 C14.02 71.73, 8.41 66.04, 4.8 59.83 C1.18 53.63, -1.47 45.13, -1.17 38.07 C-0.88 31.01, 2.1 23.29, 6.55 17.48 C10.99 11.68, 18.43 6.03, 25.48 3.24 C32.52 0.45, 44.97 0.78, 48.83 0.76 C52.69 0.73, 48.82 2.61, 48.65 3.09" stroke="#7E47EB" stroke-width="1" fill="none"></path></g><g stroke-linecap="round" transform="translate(710 10) rotate(0 40 40)"><path d="M52.2 3.04 C58.93 4.76, 66.34 9.69, 71.07 15.21 C75.79 20.74, 79.87 28.89, 80.56 36.2 C81.24 43.51, 78.48 52.66, 75.19 59.07 C71.91 65.48, 67.13 71.15, 60.86 74.65 C54.59 78.15, 45.02 80.23, 37.58 80.05 C30.13 79.88, 21.9 77.67, 16.2 73.62 C10.5 69.57, 6.14 62.44, 3.39 55.74 C0.65 49.03, -1.62 40.56, -0.27 33.39 C1.07 26.21, 6.32 17.94, 11.46 12.68 C16.6 7.42, 23.06 3.47, 30.54 1.83 C38.02 0.18, 51.7 2.21, 56.34 2.81 C60.98 3.42, 58.5 4.82, 58.38 5.47 M28.84 0.63 C35.36 -1.89, 44.7 -1.26, 51.64 1.28 C58.59 3.81, 65.63 10.12, 70.48 15.84 C75.34 21.56, 79.66 28.81, 80.78 35.59 C81.9 42.37, 80.76 50.08, 77.19 56.52 C73.62 62.96, 65.9 70.23, 59.38 74.22 C52.86 78.21, 45.06 80.72, 38.08 80.47 C31.09 80.23, 23.41 76.97, 17.47 72.75 C11.53 68.52, 5.13 61.67, 2.42 55.11 C-0.29 48.54, 0.02 40.27, 1.22 33.35 C2.41 26.43, 4.73 18.84, 9.57 13.58 C14.42 8.31, 26.66 3.65, 30.28 1.75 C33.9 -0.14, 31.32 1.67, 31.29 2.19" stroke="none" stroke-width="0" fill="#8F9CA3"></path><path d="M46.73 1.68 C53.5 2.25, 61.14 5.53, 66.65 10.32 C72.16 15.11, 77.81 23.43, 79.78 30.42 C81.76 37.4, 80.89 45.26, 78.5 52.24 C76.1 59.22, 71.07 67.7, 65.41 72.3 C59.74 76.9, 51.73 79.22, 44.5 79.86 C37.28 80.49, 28.52 79.54, 22.05 76.1 C15.58 72.67, 9.29 65.7, 5.68 59.25 C2.08 52.8, -0.01 44.4, 0.41 37.41 C0.83 30.42, 3.99 22.98, 8.19 17.29 C12.39 11.6, 17.49 5.42, 25.59 3.28 C33.68 1.14, 50.2 3.63, 56.76 4.45 C63.33 5.27, 65.21 7.74, 64.99 8.19 M21.93 6.02 C27.64 1.95, 34.9 -1.3, 41.89 -0.99 C48.88 -0.69, 58.15 3.29, 63.86 7.85 C69.57 12.41, 73.61 19.69, 76.17 26.37 C78.73 33.05, 80.62 40.81, 79.21 47.94 C77.79 55.07, 72.68 63.74, 67.67 69.15 C62.66 74.56, 55.93 78.81, 49.12 80.39 C42.32 81.98, 33.82 81.57, 26.82 78.68 C19.82 75.79, 11.73 69.12, 7.11 63.04 C2.49 56.95, -0.42 49.11, -0.89 42.15 C-1.36 35.2, 0.71 27.49, 4.31 21.33 C7.91 15.16, 17.75 8.05, 20.72 5.15 C23.68 2.25, 21.76 3.53, 22.11 3.92" stroke="#8F9CA3" stroke-width="1" fill="none"></path></g><g stroke-linecap="round" transform="translate(710 110) rotate(0 40 40)"><path d="M52.33 1.26 C59.13 2.89, 67.34 8.24, 71.79 13.96 C76.24 19.68, 78.28 28.23, 79.04 35.57 C79.79 42.91, 79.28 51.58, 76.35 58 C73.41 64.41, 67.82 70.42, 61.41 74.06 C54.99 77.69, 45.31 80.11, 37.87 79.81 C30.42 79.51, 22.53 76.23, 16.73 72.27 C10.93 68.3, 5.72 62.63, 3.09 56.02 C0.45 49.41, -0.34 39.81, 0.9 32.62 C2.14 25.42, 5.78 18.19, 10.53 12.85 C15.27 7.5, 21.88 2.02, 29.36 0.54 C36.83 -0.93, 50.56 3.25, 55.37 3.98 C60.18 4.71, 58.34 4.42, 58.22 4.92 M50.79 2.71 C57.69 3.8, 65.53 7.09, 70.19 12.27 C74.85 17.45, 77.83 26.68, 78.77 33.8 C79.71 40.92, 78.61 48.55, 75.84 54.99 C73.08 61.43, 68.18 68.21, 62.17 72.44 C56.16 76.66, 46.87 80.14, 39.78 80.33 C32.69 80.52, 25.51 77.15, 19.64 73.6 C13.77 70.06, 7.99 65.46, 4.59 59.05 C1.19 52.64, -1.42 42.36, -0.77 35.16 C-0.12 27.96, 3.64 21.28, 8.48 15.86 C13.32 10.44, 21.44 4.97, 28.29 2.66 C35.15 0.35, 46.03 2.02, 49.61 1.99 C53.19 1.96, 49.68 1.9, 49.8 2.49" stroke="none" stroke-width="0" fill="#9947EB"></path><path d="M31.76 1.07 C38.43 -1.22, 46.54 -0.88, 53.35 1.6 C60.15 4.08, 68.04 9.98, 72.6 15.95 C77.15 21.93, 80.22 30.39, 80.7 37.47 C81.18 44.54, 79.07 52.29, 75.47 58.4 C71.86 64.51, 65.23 70.62, 59.07 74.11 C52.91 77.61, 45.53 79.72, 38.52 79.36 C31.51 79.01, 23 76.3, 17.03 71.98 C11.06 67.65, 5.32 60.07, 2.72 53.43 C0.12 46.79, -0.16 39.09, 1.43 32.14 C3.03 25.19, 6.9 17.05, 12.28 11.72 C17.66 6.4, 29.56 1.88, 33.71 0.19 C37.86 -1.51, 36.91 0.77, 37.15 1.54 M38.62 -0.46 C45.79 -1.11, 56.08 2.43, 62.32 6.39 C68.56 10.34, 73.25 16.87, 76.07 23.27 C78.89 29.67, 80.36 37.42, 79.23 44.8 C78.11 52.18, 73.96 61.9, 69.33 67.52 C64.69 73.15, 58.25 76.97, 51.41 78.56 C44.56 80.16, 35.07 79.35, 28.25 77.09 C21.44 74.83, 15.29 70.3, 10.51 65 C5.74 59.69, 0.71 52.4, -0.42 45.26 C-1.56 38.12, 0.44 28.6, 3.71 22.16 C6.99 15.72, 13.21 10.25, 19.24 6.61 C25.27 2.97, 36.47 1.09, 39.91 0.31 C43.34 -0.46, 40.07 1.32, 39.87 1.97" stroke="#9947EB" stroke-width="1" fill="none"></path></g><g stroke-linecap="round" transform="translate(810 10) rotate(0 40 40)"><path d="M38.26 0.75 C45.2 -0.2, 54.29 1.6, 60.59 5.3 C66.88 9, 72.73 16.38, 76.03 22.96 C79.34 29.54, 81.37 37.83, 80.4 44.79 C79.43 51.76, 74.97 59.1, 70.2 64.74 C65.43 70.38, 58.45 76.42, 51.77 78.64 C45.09 80.87, 37.12 80.12, 30.13 78.11 C23.13 76.1, 14.77 71.74, 9.79 66.59 C4.81 61.45, 1.42 54.25, 0.24 47.23 C-0.94 40.2, -0.06 31.03, 2.7 24.45 C5.46 17.87, 10.45 11.8, 16.82 7.76 C23.19 3.71, 36.81 1.22, 40.93 0.18 C45.06 -0.85, 41.78 0.84, 41.6 1.56 M50.82 2.83 C57.82 3.89, 64.64 6.77, 69.66 11.92 C74.68 17.08, 79.63 26.3, 80.94 33.76 C82.25 41.23, 80.8 50.28, 77.52 56.71 C74.25 63.15, 67.61 68.68, 61.29 72.38 C54.97 76.09, 46.65 78.76, 39.59 78.95 C32.53 79.14, 25.12 77.2, 18.94 73.51 C12.76 69.82, 5.48 63.19, 2.53 56.81 C-0.43 50.44, -0.15 42.35, 1.2 35.28 C2.54 28.2, 6.3 19.92, 10.59 14.35 C14.89 8.79, 20.28 4.1, 26.97 1.89 C33.66 -0.31, 47.05 1.28, 50.75 1.12 C54.44 0.97, 49.4 0.51, 49.14 0.95" stroke="none" stroke-width="0" fill="#999999"></path><path d="M23.12 4.43 C28.92 1.11, 37.8 0.1, 44.77 0.78 C51.74 1.47, 59.41 3.92, 64.93 8.54 C70.46 13.15, 75.62 21.57, 77.92 28.46 C80.21 35.35, 80.53 43.06, 78.71 49.87 C76.88 56.69, 72.28 64.53, 66.96 69.34 C61.63 74.15, 53.89 77.63, 46.75 78.72 C39.61 79.8, 30.79 78.75, 24.12 75.85 C17.46 72.96, 10.71 67.15, 6.75 61.37 C2.79 55.59, 0.37 48.27, 0.38 41.16 C0.4 34.05, 2.77 25.15, 6.85 18.71 C10.93 12.26, 21.32 5.31, 24.85 2.5 C28.38 -0.31, 27.78 1.21, 28.02 1.84 M34.1 0.87 C40.35 -0.57, 48.51 1.5, 55.18 4.24 C61.86 6.98, 70.2 11.43, 74.16 17.33 C78.12 23.23, 79.08 32.22, 78.96 39.63 C78.85 47.05, 77.16 55.94, 73.47 61.85 C69.78 67.76, 63.07 72.29, 56.83 75.1 C50.59 77.92, 43.03 79.45, 36.04 78.75 C29.04 78.05, 20.56 75.47, 14.85 70.92 C9.15 66.38, 3.99 58.61, 1.79 51.47 C-0.41 44.34, -0.14 34.84, 1.65 28.11 C3.44 21.38, 7.07 15.77, 12.52 11.09 C17.97 6.42, 30.74 1.83, 34.34 0.04 C37.95 -1.76, 34.05 -0.62, 34.16 0.33" stroke="#999999" stroke-width="1" fill="none"></path></g><g stroke-linecap="round" transform="translate(810 110) rotate(0 40 40)"><path d="M53.94 1.86 C60.36 3.76, 67.24 10.65, 71.54 16.6 C75.84 22.56, 79.13 30.62, 79.73 37.59 C80.34 44.56, 78.59 52.06, 75.17 58.42 C71.75 64.78, 65.64 72.17, 59.21 75.76 C52.79 79.35, 43.82 80.57, 36.6 79.95 C29.38 79.34, 21.6 76.26, 15.91 72.06 C10.22 67.86, 5.07 61.6, 2.46 54.74 C-0.16 47.88, -1.3 37.97, 0.23 30.87 C1.76 23.78, 6.44 17.26, 11.64 12.16 C16.84 7.06, 23.57 1.3, 31.43 0.27 C39.28 -0.76, 53.26 4.46, 58.77 5.98 C64.28 7.49, 64.62 8.77, 64.46 9.35 M36.2 0 C43.05 -0.7, 53.33 2.61, 59.62 5.88 C65.91 9.16, 70.42 13.61, 73.92 19.64 C77.42 25.66, 80.69 34.76, 80.61 42.01 C80.53 49.26, 78.04 57.08, 73.43 63.15 C68.82 69.22, 59.78 75.83, 52.93 78.43 C46.07 81.04, 39.33 80.41, 32.28 78.76 C25.23 77.12, 15.78 73.67, 10.61 68.55 C5.45 63.43, 2.72 55.16, 1.3 48.05 C-0.11 40.94, -0.28 32.53, 2.13 25.89 C4.54 19.25, 9.95 12.35, 15.77 8.23 C21.59 4.1, 33.69 2.18, 37.06 1.14 C40.44 0.09, 35.99 1.61, 36.02 1.97" stroke="none" stroke-width="0" fill="#B447EB"></path><path d="M45.68 0.54 C52.7 0.9, 60.46 4.51, 65.89 9.27 C71.33 14.02, 76.16 22.07, 78.29 29.05 C80.42 36.02, 80.66 44.32, 78.67 51.13 C76.68 57.95, 71.91 65.17, 66.38 69.93 C60.85 74.7, 52.6 78.72, 45.47 79.71 C38.34 80.69, 29.99 78.75, 23.58 75.87 C17.18 72.99, 10.86 68.22, 7.01 62.41 C3.17 56.6, 0.57 48.08, 0.52 41 C0.47 33.93, 2.89 26.21, 6.7 19.95 C10.52 13.69, 15.99 6.61, 23.41 3.42 C30.82 0.24, 45.66 0.77, 51.19 0.84 C56.72 0.91, 56.94 3.19, 56.58 3.84 M46.71 1.42 C53.69 2.12, 62.05 6.22, 67.27 11.28 C72.5 16.33, 76.12 24.56, 78.05 31.74 C79.98 38.91, 81.26 47.71, 78.85 54.33 C76.45 60.94, 69.54 67.11, 63.63 71.41 C57.72 75.71, 50.4 79.47, 43.4 80.13 C36.4 80.79, 27.83 78.51, 21.63 75.37 C15.43 72.22, 10 67.34, 6.18 61.27 C2.37 55.21, -1.44 46.58, -1.27 38.98 C-1.1 31.37, 2.85 21.74, 7.19 15.67 C11.53 9.6, 18 5.27, 24.78 2.54 C31.57 -0.19, 44.32 -0.52, 47.89 -0.73 C51.46 -0.93, 46.18 0.42, 46.2 1.33" stroke="#B447EB" stroke-width="1" fill="none"></path></g></svg>