<svg version="1.1" xmlns="http://www.w3.org/2000/svg" viewBox="0 0 140 140" width="140" height="140"><!-- svg-source:excalidraw --><metadata></metadata><defs><style class="style-fonts">
      </style></defs><rect x="0" y="0" width="140" height="140" fill="#ffffff"></rect><g stroke-linecap="round" transform="translate(10 10) rotate(0 60 60)"><path d="M33.52 5.94 C40.94 1.03, 51.6 -0.79, 60.75 -0.47 C69.9 -0.15, 80.36 3.37, 88.43 7.85 C96.5 12.33, 104.02 18.89, 109.17 26.41 C114.31 33.92, 118.32 43.61, 119.3 52.94 C120.28 62.27, 118.58 73.5, 115.05 82.38 C111.52 91.26, 105.21 100.29, 98.13 106.2 C91.05 112.11, 81.44 115.9, 72.57 117.85 C63.7 119.81, 53.69 120.11, 44.93 117.93 C36.17 115.76, 26.76 111.04, 20 104.79 C13.23 98.55, 7.67 89.28, 4.35 80.45 C1.04 71.63, -1.02 61, 0.11 51.83 C1.24 42.65, 4.41 33.68, 11.13 25.4 C17.86 17.12, 33.8 6.13, 40.44 2.17 C47.08 -1.79, 50.52 0.45, 50.99 1.64 M68.73 -0.69 C77.48 -0.43, 86.9 4.9, 94.23 10.6 C101.56 16.3, 108.49 24.92, 112.71 33.5 C116.92 42.09, 119.51 53.01, 119.51 62.12 C119.51 71.24, 117.07 80.19, 112.72 88.2 C108.36 96.2, 101.33 104.66, 93.38 110.17 C85.43 115.67, 74.17 120.42, 65.02 121.22 C55.87 122.01, 47.24 118.57, 38.48 114.96 C29.72 111.35, 18.55 106.7, 12.44 99.54 C6.34 92.39, 3.32 81.43, 1.83 72 C0.33 62.57, 1.04 51.82, 3.47 42.96 C5.9 34.11, 10.02 25.69, 16.4 18.89 C22.78 12.08, 33.07 5.24, 41.75 2.15 C50.42 -0.94, 63.96 0.33, 68.44 0.34 C72.91 0.35, 68.55 1.11, 68.61 2.23" stroke="none" stroke-width="0" fill="Yellow"></path><path d="M81.57 3.11 C90.26 5.41, 99.74 12.61, 105.92 19.93 C112.1 27.24, 116.72 37.99, 118.66 47 C120.6 56, 119.77 64.96, 117.56 73.95 C115.36 82.94, 111.51 93.92, 105.44 100.94 C99.38 107.96, 90.07 113.12, 81.19 116.09 C72.3 119.06, 61.35 120.05, 52.12 118.75 C42.89 117.45, 33.23 113.37, 25.82 108.28 C18.41 103.19, 11.88 96.32, 7.66 88.19 C3.45 80.05, 0.66 68.92, 0.52 59.47 C0.37 50.02, 2.35 39.66, 6.78 31.47 C11.21 23.28, 19.26 15.32, 27.11 10.3 C34.95 5.29, 43.18 1.56, 53.84 1.36 C64.51 1.16, 83.43 6.72, 91.08 9.1 C98.74 11.49, 100.03 14.8, 99.76 15.67 M43.94 2.23 C52.18 -0.96, 64.94 -0.58, 73.96 1.72 C82.97 4.02, 90.89 10.09, 98.01 16.01 C105.13 21.93, 112.86 28.95, 116.65 37.24 C120.45 45.54, 121.82 56.65, 120.78 65.8 C119.74 74.96, 115.74 84.47, 110.41 92.17 C105.08 99.87, 96.9 107.35, 88.79 112.01 C80.69 116.68, 70.97 119.96, 61.78 120.18 C52.59 120.39, 42.02 117.53, 33.63 113.3 C25.24 109.06, 16.94 102.48, 11.44 94.76 C5.93 87.04, 1.9 76.44, 0.57 66.96 C-0.75 57.49, 0.41 46.5, 3.48 37.9 C6.54 29.3, 11.99 21.5, 18.98 15.36 C25.97 9.21, 40.76 2.88, 45.42 1.02 C50.08 -0.84, 46.66 3.1, 46.93 4.21" stroke="#000000" stroke-width="1" fill="none"></path></g><g stroke-linecap="round" transform="translate(42.5 42.5) rotate(0 7.5 12.5)"><path d="M9.04 0.51 C10.53 1, 12.54 3.32, 13.46 5.48 C14.39 7.63, 14.74 10.88, 14.59 13.46 C14.44 16.03, 13.54 19, 12.57 20.93 C11.6 22.86, 10.3 24.73, 8.78 25.07 C7.25 25.41, 4.8 24.47, 3.4 22.97 C1.99 21.46, 0.88 18.69, 0.35 16.04 C-0.19 13.39, -0.5 9.53, 0.17 7.06 C0.83 4.6, 2.74 2.25, 4.32 1.24 C5.9 0.23, 8.77 1.02, 9.65 1.02 C10.52 1.02, 9.62 1.21, 9.55 1.27 M7.03 0.58 C8.62 0.4, 10.89 0.85, 12.16 2.61 C13.43 4.37, 14.35 8.37, 14.65 11.14 C14.96 13.92, 14.7 17.06, 13.99 19.27 C13.29 21.49, 11.84 23.62, 10.43 24.44 C9.02 25.26, 7.16 25.12, 5.54 24.19 C3.91 23.26, 1.66 21.23, 0.68 18.86 C-0.31 16.5, -0.69 12.54, -0.36 9.99 C-0.04 7.44, 1.17 5.12, 2.62 3.55 C4.06 1.98, 7.5 1.12, 8.3 0.56 C9.11 0, 7.6 0.18, 7.45 0.19" stroke="none" stroke-width="0" fill="Black"></path><path d="M6.66 0.4 C8.2 -0.04, 10.38 1.04, 11.78 2.52 C13.18 3.99, 14.58 6.84, 15.07 9.25 C15.55 11.67, 15.38 14.55, 14.67 17.01 C13.97 19.46, 12.31 22.72, 10.82 24.01 C9.32 25.3, 7.22 25.45, 5.7 24.76 C4.18 24.07, 2.61 22.02, 1.7 19.87 C0.79 17.73, 0.22 14.58, 0.23 11.89 C0.24 9.2, 0.67 5.64, 1.77 3.73 C2.86 1.83, 5.86 1, 6.78 0.45 C7.71 -0.11, 7.25 0.35, 7.3 0.43 M7.4 -0.48 C8.81 -0.78, 10.72 0.2, 11.96 1.9 C13.2 3.61, 14.55 7.09, 14.85 9.75 C15.15 12.41, 14.52 15.57, 13.78 17.85 C13.03 20.14, 11.86 22.25, 10.38 23.47 C8.89 24.68, 6.51 25.81, 4.86 25.15 C3.21 24.48, 1.25 21.72, 0.49 19.46 C-0.28 17.19, -0.04 14.21, 0.27 11.55 C0.57 8.88, 1.29 5.42, 2.32 3.45 C3.34 1.49, 5.57 0.23, 6.44 -0.25 C7.3 -0.73, 7.47 0.42, 7.51 0.57" stroke="#000000" stroke-width="1" fill="none"></path></g><g stroke-linecap="round" transform="translate(82.5 42.5) rotate(0 7.5 12.5)"><path d="M6.16 0.29 C7.62 -0.45, 9.29 0.29, 10.74 1.55 C12.19 2.81, 14.24 5.46, 14.86 7.86 C15.47 10.26, 14.93 13.41, 14.44 15.95 C13.95 18.5, 13.16 21.7, 11.91 23.15 C10.66 24.59, 8.53 24.93, 6.92 24.61 C5.31 24.29, 3.35 23.09, 2.27 21.22 C1.19 19.36, 0.61 16.17, 0.45 13.4 C0.28 10.62, 0.29 6.84, 1.26 4.58 C2.23 2.32, 5.5 0.61, 6.28 -0.17 C7.06 -0.95, 5.94 -0.34, 5.92 -0.08 M5.78 0.02 C7.16 -0.6, 8.8 0.96, 10.33 2.15 C11.87 3.33, 14.27 4.84, 14.99 7.14 C15.7 9.44, 15.3 13.2, 14.64 15.93 C13.98 18.67, 12.5 22.05, 11.04 23.55 C9.59 25.06, 7.36 25.48, 5.89 24.95 C4.42 24.43, 3.31 22.51, 2.22 20.41 C1.13 18.32, -0.52 14.86, -0.65 12.37 C-0.77 9.89, 0.4 7.59, 1.47 5.52 C2.53 3.45, 5.03 0.88, 5.74 -0.04 C6.45 -0.96, 5.56 -0.3, 5.72 0.02" stroke="none" stroke-width="0" fill="Black"></path><path d="M8.05 0.39 C9.58 0.23, 11.58 1.33, 12.74 3.08 C13.89 4.83, 14.84 8.18, 14.98 10.87 C15.12 13.56, 14.5 16.97, 13.6 19.22 C12.69 21.47, 11.1 23.49, 9.55 24.36 C8.01 25.24, 5.8 25.5, 4.33 24.48 C2.86 23.47, 1.39 20.64, 0.72 18.29 C0.05 15.93, -0.12 12.85, 0.3 10.34 C0.72 7.82, 1.95 4.92, 3.23 3.19 C4.51 1.46, 7.2 0.45, 7.96 -0.07 C8.73 -0.58, 7.88 -0.12, 7.83 0.09 M5.7 0.05 C6.98 -0.75, 9.12 -0.28, 10.52 1.06 C11.91 2.4, 13.48 5.49, 14.07 8.09 C14.65 10.69, 14.51 14.14, 14.03 16.64 C13.55 19.15, 12.35 21.79, 11.19 23.13 C10.02 24.48, 8.55 25.21, 7.04 24.7 C5.52 24.19, 3.29 22.13, 2.11 20.09 C0.92 18.05, -0.07 14.99, -0.07 12.45 C-0.06 9.92, 1.2 7.03, 2.14 4.89 C3.09 2.75, 4.99 0.34, 5.61 -0.38 C6.23 -1.09, 5.71 0.23, 5.85 0.59" stroke="#000000" stroke-width="1" fill="none"></path></g><g stroke-linecap="round"><g transform="translate(30 80) rotate(0 40 12.5)"><path d="M0.38 -0.31 C4.31 3.85, 14.99 20.59, 24.15 24.66 C33.32 28.73, 46.04 28.19, 55.35 24.12 C64.67 20.04, 75.94 4.31, 80.02 0.21 M-0.88 -1.52 C3.37 2.84, 17.15 21.6, 26.42 26.02 C35.7 30.44, 45.8 29.07, 54.77 24.97 C63.75 20.87, 76.36 5.65, 80.28 1.42" stroke="#000000" stroke-width="2" fill="none"></path></g></g><mask></mask></svg>