<svg version="1.1" xmlns="http://www.w3.org/2000/svg" viewBox="0 0 164.7213595499958 172.16904260722458" width="164.7213595499958" height="172.16904260722458"><!-- svg-source:excalidraw --><metadata></metadata><defs><style class="style-fonts">
      </style></defs><rect x="0" y="0" width="164.7213595499958" height="172.16904260722458" fill="#ffffff"></rect><g stroke-linecap="round"><g transform="translate(154.7213595499958 86.08452130361229) rotate(0 -72.3606797749979 0)"><path d="M0 0 C-18.3 7.96, -34.76 12.4, -51.68 20.57 M0 0 C-16.35 5.71, -32.83 12.39, -51.68 20.57 M-51.68 20.57 C-52.67 36.83, -52.46 54.57, -55.28 76.08 M-51.68 20.57 C-53 39.62, -54.03 60.24, -55.28 76.08 M-55.28 76.08 C-66.53 61.77, -80.37 46.01, -90.82 33.29 M-55.28 76.08 C-65.85 64.08, -74.52 51.56, -90.82 33.29 M-90.82 33.29 C-103.76 37.93, -118.06 38.99, -144.72 47.02 M-90.82 33.29 C-108.58 37.42, -126.87 43.17, -144.72 47.02 M-144.72 47.02 C-138.7 35.27, -130.61 24.93, -115 0 M-144.72 47.02 C-134.19 31.89, -124.08 14.86, -115 0 M-115 0 C-123.99 -13.21, -133.06 -25.19, -144.72 -47.02 M-115 0 C-121.64 -10.07, -126.93 -20.67, -144.72 -47.02 M-144.72 -47.02 C-122.15 -40.63, -101.59 -34.75, -90.82 -33.29 M-144.72 -47.02 C-129.69 -44.35, -114.06 -38.96, -90.82 -33.29 M-90.82 -33.29 C-81.43 -42.82, -73.98 -48.75, -55.28 -76.08 M-90.82 -33.29 C-80.95 -45.09, -71.21 -56.24, -55.28 -76.08 M-55.28 -76.08 C-53.67 -53.46, -51.64 -34.62, -51.68 -20.57 M-55.28 -76.08 C-54.15 -59.19, -53.9 -42.94, -51.68 -20.57 M-51.68 -20.57 C-32.5 -11.5, -11.29 -6.59, 0 0 M-51.68 -20.57 C-32.48 -12.5, -14.62 -6.25, 0 0" stroke="#000000" stroke-width="1" fill="none"></path></g></g><mask></mask></svg>