<svg version="1.1" xmlns="http://www.w3.org/2000/svg" viewBox="0 0 220 100" width="220" height="100"><!-- svg-source:excalidraw --><metadata></metadata><defs><style class="style-fonts">
      </style></defs><rect x="0" y="0" width="220" height="100" fill="#ffffff"></rect><g stroke-linecap="round" transform="translate(80 10) rotate(0 65 40)"><path d="M6.19 22.6 C6.19 22.6, 6.19 22.6, 6.19 22.6 M6.19 22.6 C6.19 22.6, 6.19 22.6, 6.19 22.6 M3.3 32.02 C11.38 24.08, 19.78 15.45, 22.98 9.38 M3.3 32.02 C7.58 26.25, 11.69 22.42, 22.98 9.38 M0.41 41.44 C9.91 27.33, 22.35 15.73, 31.25 5.96 M0.41 41.44 C7.44 33.28, 13.9 27.28, 31.25 5.96 M1.46 46.32 C8.72 35.14, 19.88 25.69, 38.2 4.06 M1.46 46.32 C9.79 36.34, 18.92 25.66, 38.2 4.06 M3.83 49.7 C15.36 37.52, 27.74 21.16, 44.5 2.91 M3.83 49.7 C13.62 37.38, 23.75 25.6, 44.5 2.91 M6.19 53.08 C19.73 36.35, 34.68 22.3, 50.8 1.76 M6.19 53.08 C15.74 40.3, 26.63 29.47, 50.8 1.76 M8.55 56.46 C22.37 40.5, 33.48 27.36, 57.76 -0.14 M8.55 56.46 C19.41 44.51, 29.15 33.14, 57.76 -0.14 M10.92 59.84 C31.68 38.96, 47.93 18.76, 62.09 0.97 M10.92 59.84 C21.9 47.05, 34.35 34.49, 62.09 0.97 M13.28 63.22 C26.99 43.34, 45.25 25.78, 67.08 1.33 M13.28 63.22 C32.06 41.2, 50.69 20.23, 67.08 1.33 M16.95 65.09 C31.32 45.93, 46.67 29.12, 72.06 1.69 M16.95 65.09 C31.6 47.44, 45.85 31.27, 72.06 1.69 M20.63 66.96 C39.01 46.09, 59.36 24.54, 76.39 2.81 M20.63 66.96 C40.91 43.08, 60.96 20.3, 76.39 2.81 M24.3 68.83 C39.76 48.85, 57.85 31.56, 81.38 3.17 M24.3 68.83 C41.52 48.27, 60.5 29.5, 81.38 3.17 M27.98 70.7 C45.77 48.88, 63.04 26.38, 85.71 4.28 M27.98 70.7 C47.62 49.02, 66.81 27.23, 85.71 4.28 M31.65 72.57 C48.25 50.75, 66.36 30.37, 90.7 4.64 M31.65 72.57 C51.83 49.01, 72.59 25.18, 90.7 4.64 M35.33 74.44 C55.96 48.97, 75.68 27.54, 95.03 5.76 M35.33 74.44 C57.38 48.71, 81.84 20.02, 95.03 5.76 M39 76.31 C61.83 48.51, 83.93 21.5, 98.7 7.63 M39 76.31 C51.86 61.73, 65 47.32, 98.7 7.63 M43.99 76.67 C61.05 55.35, 76.57 36.63, 102.38 9.5 M43.99 76.67 C58.8 58.47, 73.71 43.64, 102.38 9.5 M48.32 77.78 C61.52 61.08, 79.39 40.79, 106.71 10.61 M48.32 77.78 C62.71 60.86, 78.7 44.35, 106.71 10.61 M53.31 78.14 C74.85 56.65, 92.97 33.2, 110.38 12.48 M53.31 78.14 C68.24 61.14, 82.61 44.63, 110.38 12.48 M58.29 78.5 C73.02 63.24, 85.55 51.49, 114.06 14.35 M58.29 78.5 C69.11 64.31, 81.18 50.45, 114.06 14.35 M62.63 79.62 C80.57 61.08, 98.69 38.74, 117.73 16.22 M62.63 79.62 C81.31 57.22, 99.82 37.49, 117.73 16.22 M67.61 79.98 C79.69 64.37, 89.55 53.82, 120.75 18.84 M67.61 79.98 C86.7 58.55, 105.64 37.16, 120.75 18.84 M72.6 80.34 C87.88 61.55, 108.38 42.51, 122.46 22.98 M72.6 80.34 C85.48 65.77, 98.53 50.35, 122.46 22.98 M78.9 79.19 C98.19 60.71, 115.33 38.39, 124.82 26.36 M78.9 79.19 C95.57 61.81, 110.9 41.83, 124.82 26.36 M85.85 77.28 C99.62 60.52, 112.91 45.76, 126.53 30.49 M85.85 77.28 C101.43 59.74, 116.38 41.55, 126.53 30.49 M92.81 75.38 C103.57 63.56, 114.91 52.7, 128.89 33.87 M92.81 75.38 C107.01 59.62, 120.16 43.4, 128.89 33.87 M99.76 73.47 C104.13 65.2, 109.65 61.5, 127.98 41.02 M99.76 73.47 C107.83 63.72, 116.13 55.05, 127.98 41.02 M111.97 65.53 C115.21 61.06, 118.61 58.11, 125.75 49.68 M111.97 65.53 C116.15 61.13, 118.98 56.8, 125.75 49.68 M12.64 63.2 C12.64 63.2, 12.64 63.2, 12.64 63.2 M12.64 63.2 C12.64 63.2, 12.64 63.2, 12.64 63.2 M27.34 70.68 C20.63 65.72, 12.63 57.09, 4.69 51 M27.34 70.68 C21.93 65.8, 17.04 60.65, 4.69 51 M38.26 74.88 C26.59 66.22, 13.71 56.57, 0.53 42.07 M38.26 74.88 C30.04 68.08, 22.61 61.63, 0.53 42.07 M45.41 75.79 C34.01 67.74, 25.49 58.71, 2.4 38.4 M45.41 75.79 C34.97 67.4, 24.66 57.86, 2.4 38.4 M52.57 76.71 C33.49 59.78, 18.38 47.02, 3.51 34.07 M52.57 76.71 C36.5 63.52, 19.1 48.56, 3.51 34.07 M59.72 77.63 C44.14 62.37, 26.7 50.64, 4.63 29.74 M59.72 77.63 C41.21 60.95, 21.97 45.03, 4.63 29.74 M66.87 78.55 C43.53 60.61, 24.23 37.91, 5.74 25.41 M66.87 78.55 C49.12 62.1, 30.32 47.62, 5.74 25.41 M73.27 78.81 C50.73 61.25, 31.52 43.53, 6.86 21.07 M73.27 78.81 C58.12 63.77, 40.59 49.86, 6.86 21.07 M78.16 77.76 C61.26 63.31, 44.32 48.07, 10.23 18.71 M78.16 77.76 C61.47 61.31, 42.57 47.06, 10.23 18.71 M83.05 76.71 C59.93 53.77, 36.48 34.61, 13.61 16.35 M83.05 76.71 C56.95 54.05, 30.72 31.34, 13.61 16.35 M87.18 75 C70.8 60.68, 53.02 45.58, 16.99 13.99 M87.18 75 C65.66 56.4, 41.46 34.88, 16.99 13.99 M92.07 73.95 C75.49 57.76, 55.51 42.75, 20.37 11.62 M92.07 73.95 C69.79 53.21, 46.84 33.81, 20.37 11.62 M96.96 72.9 C77.98 55.24, 57.6 42.28, 23 8.6 M96.96 72.9 C68.34 48.59, 39.29 22.69, 23 8.6 M101.85 71.85 C81.5 56.64, 61.86 40.49, 26.37 6.24 M101.85 71.85 C77.52 51.89, 53.54 30.75, 26.37 6.24 M105.22 69.48 C87.38 56.17, 71.37 38.45, 31.26 5.19 M105.22 69.48 C86.32 53.53, 66.17 35.72, 31.26 5.19 M108.6 67.12 C90.4 52.17, 70.57 34.71, 36.15 4.14 M108.6 67.12 C79.95 43.18, 52.2 18.42, 36.15 4.14 M111.98 64.76 C86.05 44.12, 60.32 20.21, 41.04 3.09 M111.98 64.76 C85.6 42.38, 60.24 20.76, 41.04 3.09 M114.61 61.74 C92.97 43.87, 75.11 26.12, 45.93 2.04 M114.61 61.74 C87.39 39.43, 60.87 16.75, 45.93 2.04 M117.99 59.38 C94.28 37.48, 69.73 18.93, 50.82 0.99 M117.99 59.38 C102.58 44.36, 86.55 29.87, 50.82 0.99 M121.36 57.01 C101.41 41.35, 80.35 24.02, 55.7 -0.06 M121.36 57.01 C98.99 35.47, 73.74 15.98, 55.7 -0.06 M124.74 54.65 C107.44 38.05, 88.36 19.75, 59.84 -1.77 M124.74 54.65 C108.37 40.06, 91.47 25.56, 59.84 -1.77 M125.86 50.32 C107.76 31.4, 84.71 15.84, 66.99 -0.85 M125.86 50.32 C113.37 39.39, 101.65 30.34, 66.99 -0.85 M126.97 45.99 C115.03 34.61, 104.46 24.83, 74.14 0.07 M126.97 45.99 C112.28 33.5, 97.97 22.27, 74.14 0.07 M128.09 41.66 C109.94 28.16, 95.94 12.68, 81.3 0.98 M128.09 41.66 C111.08 25.36, 92.58 10.71, 81.3 0.98 M129.2 37.33 C115.28 24.97, 99.18 13.45, 88.45 1.9 M129.2 37.33 C114.83 24.08, 98.74 11.71, 88.45 1.9 M130.32 33 C121.65 25.36, 112.32 18.58, 94.09 1.51 M130.32 33 C122.49 25.83, 114.27 19.42, 94.09 1.51 M124.64 22.76 C122.19 20.4, 117.1 15.23, 106.53 7.02 M124.64 22.76 C117.69 17.97, 112.52 11.8, 106.53 7.02" stroke="Gray" stroke-width="0.5" fill="none"></path><path d="M58.16 -0.28 C68.39 -1.46, 81.78 1.64, 91.79 4.33 C101.8 7.03, 112 10.8, 118.22 15.91 C124.44 21.01, 128.05 28.38, 129.11 34.94 C130.18 41.51, 128.97 49.07, 124.62 55.31 C120.27 61.55, 111.78 68.22, 103 72.39 C94.22 76.56, 82.81 79.73, 71.93 80.33 C61.04 80.93, 47.57 78.84, 37.71 76 C27.84 73.16, 19.04 68.68, 12.72 63.28 C6.4 57.88, 0.91 50.35, -0.21 43.61 C-1.34 36.87, 1.52 29.01, 5.96 22.86 C10.41 16.7, 16.4 10.38, 26.44 6.68 C36.48 2.98, 58.26 1.67, 66.21 0.65 C74.16 -0.36, 74.15 -0.12, 74.13 0.59 M49.81 1.25 C59.34 -1.05, 73.07 -0.7, 83.22 1.19 C93.37 3.08, 103.22 7.68, 110.69 12.61 C118.17 17.54, 125.2 24.47, 128.07 30.77 C130.94 37.07, 130.79 43.94, 127.9 50.4 C125.01 56.86, 118.42 64.59, 110.72 69.53 C103.02 74.48, 92.23 78.73, 81.71 80.09 C71.19 81.46, 58.35 79.97, 47.6 77.73 C36.85 75.48, 24.6 71.24, 17.19 66.62 C9.78 62, 5.75 56.53, 3.15 50.01 C0.55 43.49, -1.06 33.95, 1.61 27.51 C4.27 21.07, 11.32 15.61, 19.15 11.38 C26.98 7.14, 43.45 3.67, 48.6 2.1 C53.74 0.54, 49.39 1.72, 50.04 1.99" stroke="#000000" stroke-width="1" fill="none"></path></g><g stroke-opacity="0.8" fill-opacity="0.8" stroke-linecap="round" transform="translate(10 10) rotate(0 65 40)"><path d="M88.46 2.15 C98.17 3.8, 108.12 9.61, 115.01 14.76 C121.9 19.92, 128.1 26.29, 129.81 33.08 C131.52 39.86, 129.19 49.28, 125.29 55.48 C121.38 61.68, 114.63 66.24, 106.37 70.26 C98.1 74.29, 86.47 78.45, 75.7 79.64 C64.94 80.84, 52.03 80.01, 41.77 77.43 C31.5 74.84, 20.99 69.48, 14.11 64.12 C7.23 58.77, 2.11 51.78, 0.49 45.28 C-1.13 38.77, 0.54 31.04, 4.39 25.08 C8.24 19.12, 15.01 13.47, 23.59 9.53 C32.18 5.58, 43 1.69, 55.9 1.41 C68.81 1.13, 91.74 5.82, 101.03 7.84 C110.32 9.85, 112.24 13.16, 111.64 13.5 M61.74 1.2 C71.77 0.08, 83.37 1.79, 92.82 4.34 C102.26 6.88, 112.12 10.99, 118.41 16.46 C124.7 21.94, 129.83 30.33, 130.54 37.19 C131.24 44.04, 127.71 51.64, 122.64 57.6 C117.56 63.56, 109.11 69.17, 100.09 72.95 C91.07 76.74, 79.22 79.82, 68.52 80.34 C57.82 80.85, 45.48 79.22, 35.91 76.06 C26.34 72.9, 17.23 67.15, 11.12 61.4 C5.01 55.64, 0.01 47.79, -0.76 41.52 C-1.53 35.25, 1.66 29.61, 6.5 23.8 C11.34 17.98, 19.49 10.39, 28.3 6.62 C37.1 2.86, 54.04 2.39, 59.35 1.21 C64.66 0.02, 59.93 -1.18, 60.16 -0.48" stroke="none" stroke-width="0" fill="DarkGray"></path><path d="M64.4 0.57 C74.64 -0.07, 86.76 2.37, 96.2 5.42 C105.63 8.47, 115.26 13.15, 121.01 18.87 C126.75 24.6, 130.52 33.11, 130.67 39.79 C130.82 46.46, 127.27 53.07, 121.91 58.91 C116.56 64.75, 107.81 71.33, 98.54 74.83 C89.27 78.33, 77.27 80.07, 66.3 79.91 C55.33 79.74, 42.39 77.07, 32.7 73.84 C23.01 70.62, 13.75 66.14, 8.17 60.56 C2.59 54.98, -0.78 47.23, -0.76 40.35 C-0.75 33.48, 2.75 24.97, 8.28 19.32 C13.82 13.67, 21.57 9.48, 32.44 6.44 C43.3 3.4, 64.81 1.87, 73.45 1.06 C82.1 0.24, 84.37 1.11, 84.33 1.55 M73.41 1.96 C83.64 2.01, 95.84 4.44, 104.41 8.17 C112.99 11.89, 120.58 18.16, 124.88 24.3 C129.18 30.43, 131.65 38.3, 130.2 44.97 C128.74 51.64, 123.03 59.03, 116.15 64.35 C109.28 69.66, 98.97 74.11, 88.93 76.86 C78.89 79.6, 66.65 81.54, 55.9 80.82 C45.14 80.1, 33.19 76.89, 24.4 72.56 C15.6 68.22, 7.09 61.01, 3.12 54.82 C-0.84 48.64, -1.46 41.85, 0.62 35.44 C2.71 29.03, 8.98 21.7, 15.65 16.37 C22.31 11.05, 30.67 5.97, 40.62 3.48 C50.57 0.98, 69.66 1.74, 75.35 1.4 C81.04 1.06, 75.1 1.13, 74.76 1.42" stroke="#000000" stroke-width="1" fill="none"></path></g></svg>